STARTFONT 2.1
FONT -Monotype-Century Schoolbook-Bold-I-Normal--50-360-100-100-P-310-iso8859-4
SIZE 36 100 100
FONTBOUNDINGBOX 66 61 -11 -11

STARTPROPERTIES 24
FOUNDRY "Monotype"
FAMILY_NAME "Century Schoolbook"
WEIGHT_NAME "Bold"
SLANT "I"
SETWIDTH_NAME "Normal"
ADD_STYLE_NAME ""
PIXEL_SIZE 50
POINT_SIZE 360
RESOLUTION_X 100
RESOLUTION_Y 100
SPACING "P"
AVERAGE_WIDTH 310
CHARSET_REGISTRY "iso8859"
CHARSET_ENCODING "4"
FACE_NAME "Century Schoolbook Bold Italic ISO Latin4"
_DEC_DEVICE_FONTNAMES "PS=centuryschoolbook-bit-lat4"
COPYRIGHT "Copyright (c) 1993 Monotype Typography Ltd."
CAP_HEIGHT 46
X_HEIGHT 31
WEIGHT 10
QUAD_WIDTH 30
DEFAULT_CHAR 160
FONT_DESCENT 13
FONT_ASCENT 52
ENDPROPERTIES

CHARS 191

STARTCHAR space
ENCODING 32
SWIDTH 287 0
DWIDTH 14 0
BBX 0 0 0 0
BITMAP
ENDCHAR

STARTCHAR exclam
ENCODING 33
SWIDTH 333 0
DWIDTH 17 0
BBX 20 38 -1 -1
BITMAP
000700
001FC0
001FC0
003FC0
003FC0
003FC0
003FC0
003F80
003F80
007F00
007F00
007E00
007E00
007C00
007C00
007800
007800
00F000
00F000
00E000
00E000
00C000
01C000
01C000
018000
018000
000000
000000
000000
060000
1F8000
3FC000
3FC000
3FC000
3FC000
3FC000
1F8000
060000
ENDCHAR

STARTCHAR quotedbl
ENCODING 34
SWIDTH 400 0
DWIDTH 20 0
BBX 21 17 4 18
BITMAP
0380C0
0FC3F0
1FC7F0
1FC7F0
3FCFF0
3F8FE0
3F8FE0
3F0FC0
3F0FC0
3E0F80
3E0F00
3C0F00
380E00
380E00
300C00
300C00
200800
ENDCHAR

STARTCHAR numbersign
ENCODING 35
SWIDTH 606 0
DWIDTH 30 0
BBX 31 36 1 0
BITMAP
000F01E0
000F01E0
001E01E0
001E01E0
001E03C0
001E03C0
003E03C0
003C03C0
003C07C0
003C0780
3FFFFFFC
3FFFFFFC
3FFFFFFC
3FFFFFFC
00780F00
00780F00
00F00F00
00F00F00
00F01F00
00F01E00
00F01E00
01E01E00
3FFFFFFC
3FFFFFFC
3FFFFFFC
3FFFFFFC
03C03C00
03C03C00
03C07800
03C07800
07807800
07807800
07807800
0780F000
0780F000
0F00F000
ENDCHAR

STARTCHAR dollar
ENCODING 36
SWIDTH 574 0
DWIDTH 29 0
BBX 29 44 2 -7
BITMAP
00001C00
00001800
0000F800
0007FF00
000FFF80
001E33C0
003C71E0
007863E0
007867E0
007867E0
00F8C7E0
00F8C7C0
00FCC3C0
00FFC000
00FF8000
007F8000
007F8000
003FC000
003FE000
001FF000
000FF800
0007FC00
0007FC00
000FFE00
000CFE00
0F0CFE00
1F8C7E00
3F9C3E00
3F983E00
3F983E00
3F383C00
3C303C00
1C307800
1C30F800
0F71F000
07FFE000
01FF8000
00780000
00E00000
00C00000
00C00000
01C00000
01800000
01800000
ENDCHAR

STARTCHAR percent
ENCODING 37
SWIDTH 889 0
DWIDTH 44 0
BBX 35 35 7 -1
BITMAP
01F8000C00
07BC001800
0F1C001800
1F1E003000
1E1E006000
3E1E00E000
3E3E00C000
3C3E018000
7C3E030000
7C3C070000
7C7C060000
787C0C0000
7878180000
78F8380000
38F0300000
3DE0600000
0F80E00000
0000C07E00
000181EF00
000303C700
000703C780
0006078780
000C078780
00180F8F80
00380F8F80
00300F0F80
00601F0F80
00C01F1F00
01C01F1F00
01801E1F00
03001E1E00
07001E3C00
06000E3C00
0C000F7800
000003E000
ENDCHAR

STARTCHAR ampersand
ENCODING 38
SWIDTH 889 0
DWIDTH 44 0
BBX 43 38 2 -1
BITMAP
00000FF00000
00003FFC0000
00007E3E0000
0000FC1F0000
0001F80F8000
0003F80F8000
0003F00F8000
0003F00F8000
0007F00F8000
0007F01F0000
0007F03F0000
0007F07E0000
0007F0FC0000
0007FFF00000
0007FFC00000
0007FE000000
001FF8000000
007FFC0FFFC0
01FBFC1FFFC0
07F3FC03FE00
0FE1FE00F800
1FC1FE00F000
1FC1FF00F000
3F80FF00E000
3F80FF01C000
7F80FF818000
7F807F838000
7F807FC70000
7F803FEE0000
7FC03FFC0000
7FC01FF80180
7FE00FF80380
3FE00FF80700
3FF807FE1E00
1FFE1FFFFC00
0FFFFDFFF800
07FFF07FF000
00FF801F8000
ENDCHAR

STARTCHAR quoteright
ENCODING 39
SWIDTH 259 0
DWIDTH 13 0
BBX 15 16 2 21
BITMAP
03C0
07F0
0FF8
0FF8
0FF8
0FF8
07F8
03F8
00F0
00F0
00E0
01E0
0780
1F00
7E00
3000
ENDCHAR

STARTCHAR parenleft
ENCODING 40
SWIDTH 407 0
DWIDTH 20 0
BBX 23 47 3 -10
BITMAP
000018
000070
0000E0
0003C0
0007C0
000F80
003F00
007E00
00FE00
00FC00
01F800
03F800
07F000
07F000
0FE000
0FE000
1FE000
1FC000
1FC000
3FC000
3F8000
3F8000
3F8000
7F8000
7F0000
7F0000
7F0000
7F0000
7F0000
7F0000
7F0000
7F0000
3F0000
3F0000
3F0000
3F0000
1F0000
1F0000
0F0000
0F8000
078000
078000
03C000
01C000
01C000
00E000
006000
ENDCHAR

STARTCHAR parenright
ENCODING 41
SWIDTH 407 0
DWIDTH 20 0
BBX 23 47 -5 -10
BITMAP
000C00
000600
000700
000780
0003C0
0003C0
0003E0
0001E0
0001F0
0001F0
0001F8
0001F8
0001F8
0001F8
0001FC
0001FC
0001FC
0001FC
0001FC
0001FC
0001FC
0001FC
0001FC
0003FC
0003F8
0003F8
0003F8
0007F8
0007F0
0007F0
000FF0
000FE0
001FE0
001FC0
003F80
003F80
007F00
007E00
00FC00
01F800
01F000
03E000
07C000
0F0000
1E0000
3C0000
700000
ENDCHAR

STARTCHAR asterisk
ENCODING 42
SWIDTH 500 0
DWIDTH 25 0
BBX 26 22 2 15
BITMAP
001E0000
003F0000
003F0000
003F0000
003F0000
003F0000
1C1E0E00
3F1E3F00
7F8C7F80
7FCCFF80
3FEDFF00
3FFFFF00
000C0000
001E0000
00738000
01F3E000
03F3F000
07F3F800
07F3F800
07E1F800
07E1F800
03C0F000
ENDCHAR

STARTCHAR plus
ENCODING 43
SWIDTH 606 0
DWIDTH 30 0
BBX 31 27 2 3
BITMAP
0007C000
0007C000
0007C000
0007C000
0007C000
0007C000
0007C000
0007C000
0007C000
0007C000
0007C000
3FFFFFF8
3FFFFFF8
3FFFFFF8
3FFFFFF8
3FFFFFF8
0007C000
0007C000
0007C000
0007C000
0007C000
0007C000
0007C000
0007C000
0007C000
0007C000
0007C000
ENDCHAR

STARTCHAR comma
ENCODING 44
SWIDTH 287 0
DWIDTH 14 0
BBX 15 16 -4 -8
BITMAP
01C0
07F0
0FF0
0FF8
0FF8
0FF8
07F8
03F8
00F0
00F0
00E0
01E0
07C0
1F00
7E00
3000
ENDCHAR

STARTCHAR minus
ENCODING 45
SWIDTH 606 0
DWIDTH 30 0
BBX 31 5 2 14
BITMAP
3FFFFFF8
3FFFFFF8
3FFFFFF8
3FFFFFF8
3FFFFFF8
ENDCHAR

STARTCHAR period
ENCODING 46
SWIDTH 287 0
DWIDTH 14 0
BBX 12 8 0 -1
BITMAP
0F00
1F80
3FC0
3FC0
3FC0
3FC0
1F80
0F00
ENDCHAR

STARTCHAR slash
ENCODING 47
SWIDTH 278 0
DWIDTH 14 0
BBX 29 36 -6 0
BITMAP
000001E0
000003C0
000007C0
00000780
00000F80
00000F00
00001E00
00003E00
00003C00
00007C00
00007800
0000F000
0001F000
0001E000
0003E000
0003C000
00078000
000F8000
000F0000
001F0000
001E0000
003C0000
007C0000
00780000
00F80000
01F00000
01E00000
03E00000
03C00000
07C00000
0F800000
0F000000
1F000000
1E000000
3E000000
7C000000
ENDCHAR

STARTCHAR zero
ENCODING 48
SWIDTH 574 0
DWIDTH 29 0
BBX 28 35 2 -1
BITMAP
0001F800
0007FE00
001F1F00
003E0F00
007C0780
00FC0780
00F807C0
01F807C0
03F807C0
03F007C0
07F00FC0
07E00FC0
0FE00FC0
0FE00FC0
0FC00FC0
1FC01FC0
1FC01FC0
1FC01F80
1F803F80
3F803F80
3F803F80
3F807F00
3F007F00
3F007E00
3F00FE00
3F00FC00
3E00FC00
3E01F800
3E01F800
1E03F000
1E03E000
0F07C000
0F8F8000
07FF0000
01FC0000
ENDCHAR

STARTCHAR one
ENCODING 49
SWIDTH 574 0
DWIDTH 29 0
BBX 23 35 3 0
BITMAP
00000C
000038
0000F8
003FF8
00FFF8
00FFF0
0007F0
0003F0
0007F0
0007E0
0007E0
0007E0
000FE0
000FC0
000FC0
000FC0
001F80
001F80
001F80
003F80
003F00
003F00
003F00
007F00
007E00
007E00
007E00
00FE00
00FC00
00FC00
00FC00
01FC00
03FC00
3FFFE0
7FFFC0
ENDCHAR

STARTCHAR two
ENCODING 50
SWIDTH 574 0
DWIDTH 29 0
BBX 31 35 0 0
BITMAP
0000FC00
0007FF80
001FFFC0
003C0FE0
007807F0
007007F8
00F003F8
00F003F8
00FC03F8
00FF03F8
00FF03F8
00FF03F8
007F07F0
007F07F0
001C0FE0
00001FC0
00001F80
00003F00
00007C00
0000F800
0003E000
0007C000
000F0000
001E0000
00380000
00700180
00E00380
01C00300
03800700
07FFFF00
0FFFFE00
1FFFFE00
3FFFFC00
3FFFFC00
3FFFFC00
ENDCHAR

STARTCHAR three
ENCODING 51
SWIDTH 574 0
DWIDTH 29 0
BBX 28 35 2 -1
BITMAP
0003F800
000FFE00
003C3F80
00380F80
00780FC0
007C0FC0
00FE0FE0
00FE0FE0
007E0FE0
007C0FE0
00180FC0
00001FC0
00001F80
00003F00
00007E00
0001F800
007FE000
007FC000
0001F000
0000F800
0000FC00
0000FC00
0E00FE00
3F00FE00
3F80FE00
7F80FE00
7F00FE00
7F01FE00
3E01FC00
3C03FC00
3C07F800
1E0FF000
0FFFE000
03FF8000
007C0000
ENDCHAR

STARTCHAR four
ENCODING 52
SWIDTH 574 0
DWIDTH 29 0
BBX 29 35 1 0
BITMAP
00000070
000000E0
000001E0
000003E0
000007E0
00000FC0
00001FC0
00003FC0
00007F80
0000FF80
0001DF80
0003BF80
00073F00
000E3F00
001E3F00
003C7E00
00787E00
00F07E00
01E0FE00
03C0FC00
0780FC00
0700FC00
0E01FC00
1C01F800
3FFFFF80
3FFFFF80
0003F000
0003F000
0003F000
0007F000
0007E000
0007E000
000FF000
00FFFE00
00FFFE00
ENDCHAR

STARTCHAR five
ENCODING 53
SWIDTH 574 0
DWIDTH 29 0
BBX 28 35 3 -1
BITMAP
001E00E0
001FFFC0
003FFFC0
003FFF80
003FFF00
007FFC00
0063E000
00600000
00E00000
00C00000
00C00000
01C00000
018F8000
01FFE000
03FFF000
0381F800
0701FC00
0600FC00
0400FE00
0000FE00
0000FE00
0000FE00
0000FE00
0E00FE00
1F01FE00
3F81FC00
7F81FC00
7F83FC00
7F03F800
7E07F000
7807F000
380FC000
3C3F8000
0FFF0000
07F80000
ENDCHAR

STARTCHAR six
ENCODING 54
SWIDTH 574 0
DWIDTH 29 0
BBX 28 35 3 -1
BITMAP
0000FE00
0003FF80
000FCFC0
001F07C0
003E0FE0
007C1FE0
00FC1FE0
01F81FC0
01F80FC0
03F00300
07F00000
07F00000
0FE00000
0FE00000
1FEFC000
1FFFF000
1FFFF800
3FE1FC00
3FC0FC00
3FC0FC00
3F80FE00
7F80FE00
7F00FE00
7F00FE00
7F01FE00
7F01FC00
7E01FC00
3E03FC00
3E03F800
3E03F800
3E07F000
1E0FE000
0F9FC000
07FF0000
01FC0000
ENDCHAR

STARTCHAR seven
ENCODING 55
SWIDTH 574 0
DWIDTH 29 0
BBX 27 36 6 -1
BITMAP
03000000
07FFFFC0
07FFFFC0
07FFFF80
0FFFFF00
0FFFFE00
0FFFFC00
1F001C00
1C003800
18007000
3800E000
3001E000
0001C000
00038000
00078000
000F0000
000F0000
001E0000
003E0000
007C0000
007C0000
00F80000
01F80000
01F80000
03F00000
07F00000
07F00000
0FF00000
0FF00000
0FE00000
1FE00000
1FE00000
1FE00000
1FC00000
0FC00000
07800000
ENDCHAR

STARTCHAR eight
ENCODING 56
SWIDTH 574 0
DWIDTH 29 0
BBX 29 35 1 -1
BITMAP
0001FE00
0007FF00
001F0F80
003C03C0
003803E0
007801E0
007801E0
00F801E0
00F801E0
00FC01E0
00FC03C0
00FE03C0
007F0780
007F8F00
007FFE00
003FF800
001FF000
001FF800
007FFC00
01F3FC00
07C1FE00
0F80FE00
1F007F00
1E003F00
3E003F00
3E001F00
3C001F00
3C001F00
3E001F00
3E003E00
1E007C00
1F00F800
0FC3F000
03FFE000
00FF8000
ENDCHAR

STARTCHAR nine
ENCODING 57
SWIDTH 574 0
DWIDTH 29 0
BBX 28 35 2 -1
BITMAP
0003F800
000FFE00
003F8F00
007F0780
00FE07C0
00FC07C0
01FC07C0
03FC07E0
03F807E0
03F807E0
03F80FE0
07F00FE0
07F00FE0
07F01FE0
07F01FC0
03F03FC0
03F03FC0
01F87FC0
01FFFFC0
007FBF80
001E7F80
00007F00
00007F00
00007F00
0000FE00
0C00FC00
1F01FC00
3F81F800
7F83F000
7F83E000
7F07C000
3F0F8000
3F3F0000
1FFC0000
07F00000
ENDCHAR

STARTCHAR colon
ENCODING 58
SWIDTH 287 0
DWIDTH 14 0
BBX 17 25 -1 -1
BITMAP
003800
00FC00
01FE00
01FE00
01FE00
01FE00
01FE00
00FC00
003800
000000
000000
000000
000000
000000
000000
000000
070000
1F8000
3FC000
3FC000
3FC000
3FC000
3FC000
1F8000
060000
ENDCHAR

STARTCHAR semicolon
ENCODING 59
SWIDTH 287 0
DWIDTH 14 0
BBX 19 32 -4 -8
BITMAP
000E00
003F00
007F80
007F80
007F80
007F80
007F80
003F00
000C00
000000
000000
000000
000000
000000
000000
000000
03E000
07F000
0FF000
0FF800
0FF800
0FF800
07F800
03F800
00F000
00F000
00E000
01E000
078000
1F0000
7C0000
300000
ENDCHAR

STARTCHAR less
ENCODING 60
SWIDTH 606 0
DWIDTH 30 0
BBX 31 27 2 3
BITMAP
00000008
00000078
000001F8
000007F8
00003FF8
0000FFE0
0007FF80
001FFE00
007FF000
03FFC000
0FFE0000
3FF80000
3FC00000
3F000000
3FE00000
3FF80000
0FFF0000
01FFC000
007FF800
000FFE00
0003FFC0
0000FFF0
00001FF8
000007F8
000001F8
00000038
00000008
ENDCHAR

STARTCHAR equal
ENCODING 61
SWIDTH 606 0
DWIDTH 30 0
BBX 31 17 2 8
BITMAP
3FFFFFF8
3FFFFFF8
3FFFFFF8
3FFFFFF8
3FFFFFF8
00000000
00000000
00000000
00000000
00000000
00000000
00000000
3FFFFFF8
3FFFFFF8
3FFFFFF8
3FFFFFF8
3FFFFFF8
ENDCHAR

STARTCHAR greater
ENCODING 62
SWIDTH 606 0
DWIDTH 30 0
BBX 31 27 2 3
BITMAP
20000000
3C000000
3F000000
3FE00000
3FF80000
1FFE0000
03FFC000
00FFF000
001FFC00
0007FF80
0000FFE0
00003FF8
000007F8
000001F8
00000FF8
00003FF8
0001FFE0
0007FF00
003FFC00
00FFE000
07FF8000
1FFE0000
3FF00000
3FC00000
3F000000
38000000
20000000
ENDCHAR

STARTCHAR question
ENCODING 63
SWIDTH 481 0
DWIDTH 24 0
BBX 25 38 2 -1
BITMAP
001FC000
007FF000
00F0F800
01C07C00
03803E00
03003E00
03003E00
06007E00
06007E00
0000FE00
0003FE00
0007FC00
001FFC00
003FF800
00FFF000
01FFC000
03FF0000
07FC0000
07F00000
0FC00000
0F800000
0F000000
0F030000
0F070000
078E0000
03FC0000
01F80000
00000000
00000000
07000000
1F800000
3FC00000
3FC00000
3FC00000
3FC00000
3FC00000
1F800000
06000000
ENDCHAR

STARTCHAR at
ENCODING 64
SWIDTH 747 0
DWIDTH 37 0
BBX 40 38 0 -3
BITMAP
0000FFE000
0007E03C00
001E000700
0038000380
00700000C0
01C0000060
0180000020
0380000030
0700000010
06003E3C10
0E00F2F818
0C01E3F808
1C03E1F808
1803C1F008
180781F008
380F83F008
300F83E008
301F03E008
301F03E018
301F07E010
303F07C010
303E0FC030
303E0FC020
303E1F8040
303E2F80C0
183FEF8180
183FCF8304
181F87CC04
0C1F03F008
0C00000008
0600000010
0300000020
0180000040
01C0000180
0060000300
0038000C00
000F00F000
0001FF8000
ENDCHAR

STARTCHAR A
ENCODING 65
SWIDTH 741 0
DWIDTH 37 0
BBX 41 36 -3 0
BITMAP
0000001C0000
0000003E0000
0000003E0000
0000007E0000
000000FE0000
000000FE0000
000001FE0000
000003FE0000
000003FF0000
000007FF0000
00000EFF0000
00000E7F0000
00001C7F0000
0000387F0000
0000387F0000
0000707F8000
0000607F8000
0000E07F8000
0001C03F8000
0001C03F8000
0003803F8000
0007003F8000
0007FFFFC000
000FFFFFC000
001FFFFFC000
001C003FC000
0038001FC000
0070001FC000
0070001FC000
00E0001FE000
00E0001FE000
01E0001FE000
03E0001FE000
0FF0003FF000
3FFE01FFFE00
3FFE03FFFE00
ENDCHAR

STARTCHAR B
ENCODING 66
SWIDTH 759 0
DWIDTH 38 0
BBX 43 36 -3 0
BITMAP
003FFFFFE000
007FFFFFFC00
0003FF03FE00
0001FE00FF00
0001FC00FF00
0003FC007F80
0003FC007F80
0003FC007F80
0003F8007F80
0007F8007F80
0007F800FF80
0007F000FF00
0007F001FE00
000FF003FC00
000FF007F800
000FE01FE000
001FFFFE0000
001FFFFF8000
001FC01FE000
001FC007F800
003FC003FC00
003F8001FC00
003F8001FE00
003F8001FE00
007F8001FE00
007F0001FE00
007F0001FE00
007F0001FE00
00FF0003FE00
00FE0003FC00
00FE0007FC00
01FE000FF800
01FE001FF000
03FE00FFC000
3FFFFFFF8000
3FFFFFFC0000
ENDCHAR

STARTCHAR C
ENCODING 67
SWIDTH 759 0
DWIDTH 38 0
BBX 37 38 4 -1
BITMAP
00003F8000
0003FFF000
000FFFF870
001FE03E70
007F800FE0
00FF0007E0
01FE0007E0
03FC0003E0
03F80003E0
07F80001C0
0FF00001C0
0FF00001C0
1FE00001C0
1FE00001C0
1FE0000180
3FC0000000
3FC0000000
3FC0000000
7FC0000000
7F80000000
7F80000000
7F80000000
7F80000000
7F80000000
7F80000000
7F80000000
7F80000600
7F80000600
3FC0000600
3FC0000E00
1FC0001C00
1FE0003800
0FF0007800
07F800F000
03FE03E000
01FFFF8000
007FFE0000
000FF00000
ENDCHAR

STARTCHAR D
ENCODING 68
SWIDTH 833 0
DWIDTH 42 0
BBX 45 36 -2 0
BITMAP
003FFFFF8000
007FFFFFF000
0003FE07FC00
0001FC00FE00
0001FC007F00
0003FC007F80
0003FC003F80
0003F8003FC0
0007F8001FC0
0007F8001FE0
0007F0001FE0
0007F0001FE0
000FF0001FE0
000FF0001FE0
000FE0001FE0
000FE0001FE0
001FE0001FE0
001FE0003FE0
001FC0003FE0
003FC0003FC0
003FC0003FC0
003F80007FC0
003F80007FC0
007F80007F80
007F8000FF80
007F0000FF00
007F0001FF00
00FF0001FE00
00FF0003FC00
00FE0007F800
01FE000FF000
01FE001FE000
01FE003FC000
03FE01FF0000
3FFFFFFC0000
3FFFFFE00000
ENDCHAR

STARTCHAR E
ENCODING 69
SWIDTH 741 0
DWIDTH 37 0
BBX 41 36 -1 0
BITMAP
00FFFFFFFE00
00FFFFFFFE00
0007FC01FE00
0003F8007E00
0007F8003C00
0007F8003C00
0007F8001C00
0007F0001C00
000FF0001800
000FF0001800
000FE00C1800
000FE01C0000
001FE0180000
001FE0380000
001FC0780000
003FC1F80000
003FFFF00000
003FFFF00000
003F87F00000
007F81E00000
007F81E00000
007F00E00000
007F00E00000
00FF00C03000
00FF00C07000
00FE00C06000
01FE0000E000
01FE0000E000
01FE0001E000
01FC0003C000
03FC0007C000
03FC000FC000
03FC003F8000
07FC01FF8000
7FFFFFFF8000
7FFFFFFF0000
ENDCHAR

STARTCHAR F
ENCODING 70
SWIDTH 704 0
DWIDTH 35 0
BBX 41 36 -1 0
BITMAP
007FFFFFFE00
00FFFFFFFE00
0007FC01FE00
0003FC007E00
0003F8003E00
0007F8001C00
0007F8001C00
0007F0001C00
0007F0001C00
000FF0001C00
000FF00E1800
000FE00C0000
000FE00C0000
001FE01C0000
001FE03C0000
001FC0F80000
003FFFF80000
003FFFF80000
003F83F80000
003F80F00000
007F80F00000
007F80700000
007F00700000
007F00600000
00FF00600000
00FF00E00000
00FE00000000
01FE00000000
01FE00000000
01FE00000000
01FC00000000
03FC00000000
03FC00000000
07FC00000000
3FFFF0000000
7FFFF0000000
ENDCHAR

STARTCHAR G
ENCODING 71
SWIDTH 815 0
DWIDTH 41 0
BBX 40 38 2 -1
BITMAP
00001FF800
0000FFFE18
0003FC1F98
000FF007F8
001FC003F8
003F8001F8
007F0000F8
00FF0000F0
01FE0000F0
03FC000070
03FC000070
07F8000070
0FF8000070
0FF8000060
0FF0000000
1FF0000000
1FF0000000
1FE0000000
3FE0000000
3FE0000000
3FE001FFFE
3FC001FFFC
3FC0001FF0
3FC0001FE0
3FC0001FC0
3FC0001FC0
3FC0003FC0
3FC0003FC0
1FC0003F80
1FE0007F80
1FE0007F80
0FE0007F00
07F000FF00
07F801EF00
03FC03CF00
00FF0F8600
007FFE0600
000FF80000
ENDCHAR

STARTCHAR H
ENCODING 72
SWIDTH 870 0
DWIDTH 44 0
BBX 51 36 -2 0
BITMAP
003FFFE0FFFF80
003FFFE0FFFF80
0003FE000FF800
0001FC000FF000
0003FC000FF000
0003FC000FE000
0003F8000FE000
0003F8001FE000
0007F8001FE000
0007F8001FC000
0007F0001FC000
0007F0003FC000
000FF0003FC000
000FF0003F8000
000FE0003F8000
001FE0007F8000
001FFFFFFF8000
001FFFFFFF0000
001FFFFFFF0000
003FC000FF0000
003FC000FF0000
003F8000FE0000
003F8001FE0000
007F8001FE0000
007F8001FC0000
007F0001FC0000
00FF0003FC0000
00FF0003FC0000
00FF0003F80000
00FE0003F80000
01FE0007F80000
01FE0007F80000
01FE0007F00000
03FE000FF80000
3FFFF0FFFF8000
3FFFE0FFFF8000
ENDCHAR

STARTCHAR I
ENCODING 73
SWIDTH 444 0
DWIDTH 22 0
BBX 28 36 -1 0
BITMAP
007FFFE0
007FFFC0
0007FC00
0003FC00
0003F800
0007F800
0007F800
0007F000
000FF000
000FF000
000FF000
000FE000
001FE000
001FE000
001FC000
001FC000
003FC000
003FC000
003F8000
003F8000
007F8000
007F8000
007F0000
00FF0000
00FF0000
00FF0000
00FE0000
01FE0000
01FE0000
01FC0000
01FC0000
03FC0000
03FC0000
07FC0000
3FFFE000
7FFFE000
ENDCHAR

STARTCHAR J
ENCODING 74
SWIDTH 667 0
DWIDTH 33 0
BBX 39 37 -1 -1
BITMAP
00000FFFF8
00000FFFF8
0000007FC0
0000007F80
0000007F80
0000007F00
000000FF00
000000FF00
000000FF00
000000FE00
000001FE00
000001FE00
000001FC00
000001FC00
000003FC00
000003FC00
000003F800
000003F800
000007F800
000007F800
000007F000
03F00FF000
0FF80FF000
1FF80FF000
1FFC0FE000
3FF81FE000
3FF81FE000
3FF81FC000
31F03FC000
30003F8000
38007F8000
38007F0000
1C00FE0000
0E03FC0000
07FFF80000
03FFE00000
007F000000
ENDCHAR

STARTCHAR K
ENCODING 75
SWIDTH 778 0
DWIDTH 39 0
BBX 46 36 -2 0
BITMAP
003FFFE3FFF0
003FFFC3FFF0
0007FE007FC0
0003FC003E00
0003F8003C00
0007F8007800
0007F800F000
0007F801C000
0007F0038000
000FF00F0000
000FF01E0000
000FE03C0000
000FE0700000
001FE0E00000
001FE1E00000
001FC3E00000
003FCFF00000
003FDFF00000
003FFFF80000
003FF3F80000
007FE3FC0000
007FC1FC0000
007F81FE0000
007F00FE0000
00FF00FF0000
00FF007F0000
00FE007F8000
01FE003F8000
01FE003FC000
01FE003FC000
01FC001FE000
03FC001FE000
03FC000FF000
07FE001FF800
7FFFE1FFFF00
7FFFE1FFFF00
ENDCHAR

STARTCHAR L
ENCODING 76
SWIDTH 704 0
DWIDTH 35 0
BBX 37 36 -1 0
BITMAP
007FFFF000
007FFFF000
0007FE0000
0003FC0000
0003FC0000
0003F80000
0007F80000
0007F80000
0007F80000
0007F00000
000FF00000
000FF00000
000FE00000
000FE00000
001FE00000
001FE00000
001FC00000
003FC00000
003FC00000
003FC00000
003F800000
007F800000
007F800000
007F000000
007F000060
00FF0000E0
00FF0001C0
00FE0001C0
00FE0003C0
01FE000780
01FE000F80
01FC001F80
03FC003F80
03FE01FF00
7FFFFFFF00
7FFFFFFF00
ENDCHAR

STARTCHAR M
ENCODING 77
SWIDTH 944 0
DWIDTH 47 0
BBX 56 36 -3 0
BITMAP
003FFE00003FFC
003FFF00007FFC
0003FF00007FC0
0001FF0000FF80
0001FF0000FF80
0001FF0001FF80
0003FF0003FF00
0003FF0003FF00
00037F00077F00
00077F000E7F00
00077F000EFE00
00077F801CFE00
00063F801CFE00
000E3F8039FE00
000E3F8071FC00
000E3F8071FC00
000C3F80E1FC00
001C3F81C3FC00
001C3F81C3F800
00183F8383F800
00383F8383F800
00383FC707F800
00381FCE07F000
00301FCE07F000
00701FDC07F000
00701FF80FF000
00701FF80FE000
00601FF00FE000
00E01FF01FE000
00E01FE01FC000
01E01FC01FC000
01E00FC01FC000
03F00F803FC000
0FFC0F807FC000
3FFE0F07FFFE00
3FFE0E07FFFE00
ENDCHAR

STARTCHAR N
ENCODING 78
SWIDTH 852 0
DWIDTH 43 0
BBX 48 36 -1 0
BITMAP
003FFC003FFC
003FFC007FFC
0003FE000FF0
0001FE0007C0
0001FE000380
0001FF000380
0003FF000380
0003FF800300
0003FF800700
00033FC00700
00073FC00700
00071FE00600
00061FE00E00
00060FF00E00
000E0FF00C00
000E07F80C00
000C07F81C00
001C03F81C00
001C03FC1800
001C03FC3800
001801FE3800
003801FE3800
003800FF3000
003800FF7000
0030007FF000
0070007FF000
0070003FE000
0060003FE000
00E0001FE000
00E0001FC000
00E0000FC000
01F0000FC000
03F0000FC000
0FFE00078000
3FFF00078000
3FFF00038000
ENDCHAR

STARTCHAR O
ENCODING 79
SWIDTH 833 0
DWIDTH 42 0
BBX 41 38 2 -1
BITMAP
00001FF80000
0000FFFE0000
0007F83F8000
000FE00FC000
003FC007E000
007F0003F000
00FE0003F800
01FE0001FC00
03FC0001FC00
03FC0001FC00
07F80001FE00
0FF80001FE00
0FF00001FE00
1FF00001FE00
1FE00001FE00
3FE00001FE00
3FE00003FE00
3FE00003FE00
3FC00003FE00
7FC00003FE00
7FC00003FC00
7FC00007FC00
7F800007FC00
7F800007F800
7F80000FF800
7F80000FF000
7F80000FF000
3F80001FE000
3F80001FE000
3F80003FC000
1F80007F8000
1FC0007F0000
0FC000FE0000
07E001FC0000
03F007F80000
01FC1FE00000
007FFF800000
001FF8000000
ENDCHAR

STARTCHAR P
ENCODING 80
SWIDTH 741 0
DWIDTH 37 0
BBX 42 36 -2 0
BITMAP
003FFFFFE000
007FFFFFF800
0003FE07FC00
0001FE01FE00
0003FC00FF00
0003FC007F00
0003FC007F80
0003F8007F80
0007F8007F80
0007F8007F80
0007F8007F80
0007F000FF80
000FF000FF00
000FF000FF00
000FE001FE00
000FE003FE00
001FE007FC00
001FE03FF000
001FFFFFC000
003FFFFE0000
003FC0000000
003FC0000000
003F80000000
007F80000000
007F80000000
007F00000000
007F00000000
00FF00000000
00FF00000000
00FE00000000
01FE00000000
01FE00000000
01FE00000000
03FE00000000
3FFFF0000000
3FFFF0000000
ENDCHAR

STARTCHAR Q
ENCODING 81
SWIDTH 833 0
DWIDTH 42 0
BBX 41 46 2 -9
BITMAP
00003FF80000
0001FFFE0000
0007F83F8000
001FE00FC000
003F8007E000
007F0003F000
00FE0003F800
01FE0001F800
03FC0001FC00
07F80001FC00
07F80001FE00
0FF00001FE00
0FF00001FE00
1FE00001FE00
1FE00001FE00
3FE00001FE00
3FC00001FE00
3FC00003FE00
7FC00003FE00
7FC00003FE00
7FC00003FC00
7F800007FC00
7F800007FC00
7F800007F800
7F83F80FF800
7F8FFC0FF800
7F9E3E0FF000
3FB80F1FE000
3FB80FBFE000
3FB007BFC000
1FB007FF8000
1FF007FF0000
0FF007FE0000
07F007FC0000
03F80FF00000
01FC1FE00000
007FFFC00000
000FFFE00000
00000FE00000
00000FE00000
00000FE00000
00000FE08000
00000FF18000
000007FF0000
000007FE0000
000001FC0000
ENDCHAR

STARTCHAR R
ENCODING 82
SWIDTH 796 0
DWIDTH 40 0
BBX 42 36 -2 0
BITMAP
007FFFFFE000
007FFFFFF800
0003FE03FE00
0001FC00FF00
0003FC00FF00
0003FC007F80
0003FC007F80
0003F8007F80
0007F8007F80
0007F8007F80
0007F0007F80
0007F000FF00
000FF000FF00
000FF001FE00
000FE007FC00
001FE01FF000
001FFFFFC000
001FFFE00000
001FC0FC0000
003FC03E0000
003FC03F0000
003F801F8000
003F801F8000
007F803F8000
007F803FC000
007F003FC000
00FF003FC000
00FF003FC000
00FF003FC000
00FE003FC100
01FE003FC300
01FE003FC700
01FE001FEE00
03FE001FFC00
3FFFF00FF800
3FFFF007F000
ENDCHAR

STARTCHAR S
ENCODING 83
SWIDTH 685 0
DWIDTH 34 0
BBX 35 38 1 -1
BITMAP
0001FF0000
0007FFC0C0
001FC1F1C0
003F007FC0
003C003F80
007C001F80
00F8000F80
00F8000F80
00F8000F00
01F8000700
01F8000700
01FC000700
01FE000700
01FF800600
00FFF00000
00FFFC0000
00FFFF8000
007FFFE000
003FFFF000
001FFFF800
0007FFFC00
0001FFFC00
00003FFE00
0E000FFE00
0E0003FE00
0E0000FE00
0E0000FE00
1E00007E00
1E00007E00
1E00007E00
1F00007C00
1F0000FC00
3F8000F800
3FC001F000
3BE003E000
38FC1FC000
007FFF0000
000FFC0000
ENDCHAR

STARTCHAR T
ENCODING 84
SWIDTH 722 0
DWIDTH 36 0
BBX 38 36 3 0
BITMAP
03FFFFFFF8
03FFFFFFF8
07F0FF83F0
07C07F01F0
0780FF00F0
0F00FF00F0
0F00FF00E0
0E00FE00E0
1C01FE00E0
1C01FE00E0
3801FC00C0
3001FC00C0
3003FC00C0
0003FC0000
0003F80000
0007F80000
0007F80000
0007F80000
0007F00000
000FF00000
000FF00000
000FE00000
000FE00000
001FE00000
001FE00000
001FC00000
001FC00000
003FC00000
003FC00000
003F800000
007F800000
007F800000
007F800000
00FF800000
1FFFFC0000
3FFFFC0000
ENDCHAR

STARTCHAR U
ENCODING 85
SWIDTH 833 0
DWIDTH 42 0
BBX 42 37 5 -1
BITMAP
3FFFF01FFF00
3FFFF01FFF00
03FF0003FC00
01FE0001F000
01FC0001E000
01FC0001E000
03FC0000C000
03FC0001C000
03F80001C000
07F80001C000
07F800018000
07F800038000
07F000038000
0FF000038000
0FF000030000
0FE000070000
0FE000070000
1FE000070000
1FE000060000
1FC0000E0000
3FC0000E0000
3FC0000E0000
3FC0000C0000
3F80001C0000
7F80001C0000
7F80001C0000
7F8000180000
7F8000380000
7F8000300000
3F8000700000
3FC000E00000
1FC001E00000
1FE003C00000
0FF80F800000
07FFFE000000
01FFFC000000
001FC0000000
ENDCHAR

STARTCHAR V
ENCODING 86
SWIDTH 741 0
DWIDTH 37 0
BBX 40 37 4 -1
BITMAP
3FFF803FFE
7FFF803FFC
0FFC000FF8
07F80007E0
07F80007C0
03F8000780
03F8000700
03F8000700
03F8000E00
03FC001C00
03FC001C00
03FC003800
03FC007000
01FC007000
01FC00E000
01FC00E000
01FC01C000
01FE038000
01FE038000
01FE070000
00FE0E0000
00FE0E0000
00FE1C0000
00FE1C0000
00FE380000
00FF700000
00FF700000
00FFE00000
007FC00000
007FC00000
007F800000
007F800000
007F000000
007E000000
007E000000
003C000000
0038000000
ENDCHAR

STARTCHAR W
ENCODING 87
SWIDTH 944 0
DWIDTH 47 0
BBX 52 37 3 -1
BITMAP
3FFF0FFFF07FE0
3FFE0FFFE0FFC0
0FF801FF003F00
07F000FE001E00
07F000FE001C00
07F000FE001C00
07F000FE003800
07F001FE003800
03F003FE007000
03F803FE007000
03F8077E00E000
03F8077F00E000
03F80E7F01C000
03F80E7F01C000
03F81C7F038000
03F81C7F038000
03F8387F070000
03F8387F070000
01F8707F0E0000
01F8703F0E0000
01FCE03F1C0000
01FCE03F380000
01FDC03FB80000
01FDC03FF00000
01FF803FF00000
01FF803FE00000
01FF003FE00000
01FF003FC00000
00FE003FC00000
00FE003F800000
00FC001F800000
00F8001F000000
00F8001F000000
00F0001E000000
00F0001E000000
00E0001C000000
00E0001C000000
ENDCHAR

STARTCHAR X
ENCODING 88
SWIDTH 741 0
DWIDTH 37 0
BBX 45 36 -2 0
BITMAP
007FFFC3FFE0
007FFF87FFE0
000FFC00FF00
0003FC007C00
0003FC007800
0003FC00F000
0001FC00E000
0001FE01C000
0000FE038000
0000FF070000
00007F0E0000
00007F9E0000
00007FBC0000
00003FF80000
00003FF00000
00001FE00000
00001FE00000
00000FE00000
00000FE00000
00001FF00000
00003FF00000
00007FF80000
0000F3F80000
0001E3FC0000
0003C3FC0000
000781FC0000
000F01FE0000
001E00FE0000
001C00FF0000
003800FF0000
0078007F0000
00F8007F8000
03F8007FC000
0FFC007FE000
3FFF07FFF800
7FFF07FFF800
ENDCHAR

STARTCHAR Y
ENCODING 89
SWIDTH 704 0
DWIDTH 35 0
BBX 37 36 5 0
BITMAP
3FFF81FFE0
3FFF81FFE0
0FF8007F80
07F0003E00
07F8003C00
03F8003C00
03F8003800
03FC007000
01FC00E000
01FE01E000
00FE01C000
00FE038000
00FF070000
007F0F0000
007F8E0000
003F9C0000
003FB80000
003FF80000
001FF00000
001FE00000
001FE00000
001FE00000
001FC00000
001FC00000
003FC00000
003FC00000
003F800000
003F800000
007F800000
007F800000
007F000000
007F000000
00FF000000
01FF000000
1FFFF80000
1FFFF00000
ENDCHAR

STARTCHAR Z
ENCODING 90
SWIDTH 704 0
DWIDTH 35 0
BBX 40 36 -1 0
BITMAP
000FFFFFFC
000FFFFFFC
000FF007FC
001FC00FF8
001F001FF0
001E003FE0
003C003FC0
003C007FC0
003800FF80
007001FF00
007003FE00
006007FC00
002007F800
00000FF800
00001FF000
00003FE000
00007FC000
0000FF8000
0000FF0000
0001FF0000
0003FE0000
0007FC0000
000FF80000
001FF00080
003FE000C0
003FE001C0
007FC00380
00FF800380
01FF000780
03FE000F00
07FE001F00
07FC003F00
0FF8007E00
1FF003FE00
3FFFFFFE00
3FFFFFFE00
ENDCHAR

STARTCHAR bracketleft
ENCODING 91
SWIDTH 407 0
DWIDTH 20 0
BBX 26 45 -1 -9
BITMAP
0007FF80
0007FF00
0007F000
0007E000
000FE000
000FC000
000FC000
000FC000
001FC000
001F8000
001F8000
003F8000
003F8000
003F0000
003F0000
007F0000
007E0000
007E0000
007E0000
00FE0000
00FC0000
00FC0000
00FC0000
01FC0000
01F80000
01F80000
03F80000
03F80000
03F00000
03F00000
07F00000
07E00000
07E00000
07E00000
0FE00000
0FC00000
0FC00000
0FC00000
1FC00000
1F800000
1F800000
1F800000
3F800000
3FF80000
3FF80000
ENDCHAR

STARTCHAR backslash
ENCODING 92
SWIDTH 606 0
DWIDTH 30 0
BBX 27 36 3 0
BITMAP
3C000000
3E000000
1E000000
1F000000
0F000000
0F800000
07800000
07C00000
03C00000
03E00000
01E00000
01F00000
00F00000
00780000
007C0000
003C0000
003E0000
001E0000
001F0000
000F0000
000F8000
00078000
0007C000
0003C000
0003E000
0001E000
0000F000
0000F800
00007800
00007C00
00003C00
00003E00
00001E00
00001F00
00000F00
00000F80
ENDCHAR

STARTCHAR bracketright
ENCODING 93
SWIDTH 407 0
DWIDTH 20 0
BBX 26 45 -5 -9
BITMAP
0003FF80
0007FF80
00007F00
00003F00
00007F00
00007E00
00007E00
00007E00
0000FE00
0000FC00
0000FC00
0000FC00
0001FC00
0001F800
0001F800
0001F800
0003F800
0003F000
0003F000
0007F000
0007F000
0007E000
0007E000
000FE000
000FC000
000FC000
000FC000
001FC000
001F8000
001F8000
001F8000
003F8000
003F0000
003F0000
003F0000
007F0000
007E0000
007E0000
00FE0000
00FE0000
00FC0000
00FC0000
01FC0000
3FF80000
3FF80000
ENDCHAR

STARTCHAR asciicircum
ENCODING 94
SWIDTH 606 0
DWIDTH 30 0
BBX 25 17 5 19
BITMAP
001C0000
001C0000
003E0000
003E0000
007F0000
007F8000
00FF8000
01FFC000
01F7C000
03E3E000
03E3E000
07C1F000
0781F800
0F80F800
1F00FC00
1F007C00
3E003E00
ENDCHAR

STARTCHAR underscore
ENCODING 95
SWIDTH 500 0
DWIDTH 25 0
BBX 29 3 -2 -6
BITMAP
3FFFFFE0
3FFFFFE0
3FFFFFE0
ENDCHAR

STARTCHAR quoteleft
ENCODING 96
SWIDTH 259 0
DWIDTH 13 0
BBX 15 16 3 21
BITMAP
0018
007C
01F0
03C0
0700
0E00
1E00
1E00
3F80
3FC0
3FE0
3FE0
3FE0
1FE0
1FC0
0F80
ENDCHAR

STARTCHAR a
ENCODING 97
SWIDTH 667 0
DWIDTH 33 0
BBX 31 25 2 -1
BITMAP
001F8060
007FC7E0
00FFE7E0
03FC7FE0
07F83FC0
07F03FC0
0FE03FC0
1FC03F80
1FC03F80
3F803F80
3F803F80
3F803F00
7F003F00
7F003F00
7F007F00
7F007E00
7F007E18
7F00FE38
7F00FC30
3F01FC70
3F83FCE0
1FCEFFC0
1FFEFF80
0FF87F00
03F03C00
ENDCHAR

STARTCHAR b
ENCODING 98
SWIDTH 611 0
DWIDTH 31 0
BBX 28 37 2 -1
BITMAP
07FE0000
0FFE0000
0FFE0000
00FC0000
00FC0000
01FC0000
01FC0000
01F80000
03F80000
03F80000
03F00000
03F00000
07F0F800
07F3FE00
07E7FF00
0FFFFF80
0FF83F80
0FF03FC0
0FE01FC0
1FC01FC0
1FC01FC0
1F801FC0
3F801FC0
3F801FC0
3F003FC0
3F003F80
7F003F80
7E003F80
7E007F00
7E007F00
7E00FE00
7E00FC00
3E01F800
3F03F000
1F8FE000
0FFF8000
03FC0000
ENDCHAR

STARTCHAR c
ENCODING 99
SWIDTH 537 0
DWIDTH 27 0
BBX 26 25 1 -1
BITMAP
0007F000
003FFC00
007E1E00
01FC0F00
03F81F00
03F03F00
07E07F00
0FE07F00
0FC07E00
1FC03C00
1FC00000
1F800000
3F800000
3F800000
3F800000
3F800000
3F800000
3F800000
3F800C00
1FC01C00
1FC03800
0FE0F000
07FFE000
03FF8000
007E0000
ENDCHAR

STARTCHAR d
ENCODING 100
SWIDTH 667 0
DWIDTH 33 0
BBX 35 37 0 -1
BITMAP
000003FF80
000003FF80
0000007F00
0000003F00
0000007F00
0000007F00
0000007E00
0000007E00
000000FE00
000000FC00
000000FC00
000001FC00
000FC1FC00
003FF1F800
00FFF9F800
01FF1FF800
03FC0FF000
07F80FF000
07F007F000
0FF007F000
0FE007E000
1FE00FE000
1FC00FE000
1FC00FC000
3FC00FC000
3FC00FC000
3F801FC000
3F801F8000
3F803F8300
3F803F8600
3F807F0E00
1F80FF0C00
1FC1FF1C00
1FE3BF7800
0FFF3FF000
07FE1FE000
01F80F8000
ENDCHAR

STARTCHAR e
ENCODING 101
SWIDTH 519 0
DWIDTH 26 0
BBX 26 25 0 -1
BITMAP
0007F800
001FFE00
007E7F00
00F83F00
01F03F00
03F03F00
07E03F00
0FE07F00
0FE07E00
1FC0FE00
1FC1FC00
3FC3F000
3FCFE000
3FFF0000
3FF00000
3F800000
3F800000
3F800000
3F800C00
1FC01C00
1FC03800
0FE0F000
07FFE000
03FF8000
007E0000
ENDCHAR

STARTCHAR f
ENCODING 102
SWIDTH 389 0
DWIDTH 19 0
BBX 30 47 -3 -10
BITMAP
000007E0
00001FF0
00003FF8
000079F8
0000F1F8
0001F1F0
0003E0F0
0003E000
0007E000
0007E000
0007C000
000FC000
000FC000
000FC000
01FFFE00
01FFFC00
01FFFC00
003F8000
003F0000
003F0000
003F0000
003F0000
007F0000
007E0000
007E0000
007E0000
00FE0000
00FC0000
00FC0000
00FC0000
01FC0000
01F80000
01F80000
01F80000
03F80000
03F00000
03F00000
07F00000
07F00000
07E00000
0FE00000
0FE00000
1FC00000
1FC00000
1FC00000
3F000000
20000000
ENDCHAR

STARTCHAR g
ENCODING 103
SWIDTH 611 0
DWIDTH 31 0
BBX 36 36 -4 -9
BITMAP
00000007C0
0000001FC0
0000FFBFE0
0007FFF3E0
001FC1F9C0
003F81FC00
003F00FC00
007F00FE00
007E00FE00
00FE00FE00
00FE00FE00
00FE00FC00
007E01FC00
007E01FC00
003F03F800
001F87F000
007FFFE000
01FFFF0000
03C0000000
0380000000
07C0000000
07FFF80000
07FFFFC000
03FFFFE000
03FFFFF000
01FFFFF800
00FFFFF800
07E007F800
1F8001F800
3F0001F800
3F0001F000
3F0001F000
3F8003E000
1FE01F8000
0FFFFE0000
01FFF00000
ENDCHAR

STARTCHAR h
ENCODING 104
SWIDTH 685 0
DWIDTH 34 0
BBX 33 37 1 -1
BITMAP
0001C00000
01FFC00000
01FFC00000
003F800000
003F800000
003F800000
003F000000
003F000000
007F000000
007F000000
007E000000
007E000000
00FE000000
00FC0FC000
00FC3FE000
01FCFFF000
01FDE7F000
01FB83F000
01FB03F000
03FE03F000
03FC03F000
03FC07F000
07F807E000
07F007E000
07F00FE000
07E00FC000
0FE00FC000
0FC01FC000
0FC01F8600
1FC01F8600
1F803F8E00
1F803F0C00
3F803F1800
3F803F3800
3F003FF000
3F001FE000
7F000F8000
ENDCHAR

STARTCHAR i
ENCODING 105
SWIDTH 389 0
DWIDTH 19 0
BBX 17 37 2 -1
BITMAP
007800
00FC00
01FE00
01FE00
01FE00
01FE00
00FC00
003000
000000
000000
000000
000000
00FC00
3FF800
3FF800
03F800
03F800
03F000
03F000
07F000
07E000
07E000
0FE000
0FE000
0FC000
0FC000
1FC000
1F8000
1F8300
1F8700
3F8E00
3F0C00
3F1C00
3F7800
3FF000
1FE000
0F8000
ENDCHAR

STARTCHAR j
ENCODING 106
SWIDTH 370 0
DWIDTH 19 0
BBX 27 45 -8 -9
BITMAP
00001E00
00003F00
00007F80
00007F80
00007F80
00007F80
00003F00
00000E00
00000000
00000000
00000000
00000000
00003F00
0007FF00
0007FE00
0000FE00
0000FE00
0000FE00
0000FC00
0000FC00
0000FC00
0001FC00
0001F800
0001F800
0001F800
0003F800
0003F000
0003F000
0003F000
0007F000
0007E000
0007E000
0007E000
000FE000
000FC000
000FC000
001FC000
001F8000
1C1F8000
3E3F0000
3E3E0000
3E7C0000
3FF80000
3FF00000
0F800000
ENDCHAR

STARTCHAR k
ENCODING 107
SWIDTH 648 0
DWIDTH 32 0
BBX 31 38 0 -1
BITMAP
0000E000
00FFE000
01FFC000
001FC000
001FC000
001F8000
001F8000
003F8000
003F8000
003F0000
003F0000
007F0000
007E0000
007E07F0
00FE1FF8
00FE3FFC
00FC71FC
00FCC0FC
01FD80FC
01FB00FC
01FE00F8
03FE01F8
03FC01F0
03F803C0
03F80F80
07F3FC00
07F3F000
07E07800
0FE03C00
0FE07E00
0FC07E1C
0FC07E18
1FC07E38
1F807E70
1F807FE0
3F807FC0
3F803F80
00001E00
ENDCHAR

STARTCHAR l
ENCODING 108
SWIDTH 389 0
DWIDTH 19 0
BBX 19 38 2 -1
BITMAP
000080
03FF80
03FF80
007F80
003F00
003F00
007F00
007E00
007E00
00FE00
00FC00
00FC00
00FC00
01FC00
01F800
01F800
03F800
03F000
03F000
03F000
07F000
07E000
07E000
0FE000
0FC000
0FC000
1FC000
1FC000
1F8000
1F8600
3F8E00
3F0C00
3F1C00
3F3800
3FF000
3FE000
1FC000
0E0000
ENDCHAR

STARTCHAR m
ENCODING 109
SWIDTH 944 0
DWIDTH 47 0
BBX 47 24 0 0
BITMAP
03FC1F803F00
1FFC7FC0FF80
1FF8FFE3FFC0
03F9CFE79FC0
01FB07EE0FC0
01FE07FC0FC0
03FC07F80FC0
03FC07F01FC0
03F80FF01FC0
07F00FE01F80
07F00FE03F80
07E00FC03F80
07E01FC03F00
0FE01FC03F00
0FC01F807F00
0FC03F807E10
1FC03F807E18
1F803F00FE30
1F803F00FC70
1F807F00FCE0
3F807E00FFC0
3F007E00FF80
3F00FE007F00
7F00FC003C00
ENDCHAR

STARTCHAR n
ENCODING 110
SWIDTH 685 0
DWIDTH 34 0
BBX 33 25 1 -1
BITMAP
0000078000
1FFC1FE000
1FFC7FE000
03F8FFF000
01F9C7F000
01FB83F000
01FF03F000
03F603F000
03FC07F000
03F807F000
07F807E000
07F007E000
07F00FE000
07E00FC000
0FE00FC000
0FE01FC000
0FC01F8600
0FC01F8600
1FC03F8E00
1F803F0C00
1F803F1800
3F803F3800
3F803FF000
3F001FE000
3F000F8000
ENDCHAR

STARTCHAR o
ENCODING 111
SWIDTH 574 0
DWIDTH 29 0
BBX 28 25 0 -1
BITMAP
000FF000
007FFC00
00FC3E00
03F81F00
07F00F80
0FE00FC0
0FE00FC0
1FC00FC0
1FC00FE0
3FC00FE0
3F800FE0
3F800FE0
7F801FE0
7F801FC0
7F001FC0
7F003FC0
7F003F80
3F003F80
3F007F00
3F007F00
1F00FE00
0F81FC00
07C3F000
03FFE000
00FF0000
ENDCHAR

STARTCHAR p
ENCODING 112
SWIDTH 648 0
DWIDTH 32 0
BBX 37 33 -5 -9
BITMAP
000FF0FE00
003FF3FF00
007FF7FF80
0007FE3FC0
0007EC1FC0
0007F80FE0
0007F00FE0
000FE00FE0
000FE00FE0
000FC00FE0
000FC00FE0
001FC00FE0
001F801FE0
001F801FC0
003F801FC0
003F803FC0
003F803F80
003F807F80
007F807F00
007F80FE00
007F81FE00
00FEE3FC00
00FEFFF000
00FC7FE000
00FC1F0000
01FC000000
01F8000000
01F8000000
03F8000000
03F8000000
07F8000000
3FFF000000
7FFF000000
ENDCHAR

STARTCHAR q
ENCODING 113
SWIDTH 630 0
DWIDTH 31 0
BBX 31 33 0 -9
BITMAP
0007F81C
001FFC38
007F1E78
00FC0F78
01F807F0
03F807F0
07F007F0
07F007F0
0FE007E0
0FE007E0
1FC00FE0
1FC00FC0
3FC00FC0
3F800FC0
3F801FC0
3F801F80
3F803F80
3F803F80
3F807F00
3F80FF00
1FC1FF00
1FE3FF00
0FFF7E00
07FE7E00
01F8FE00
0000FC00
0000FC00
0001FC00
0001F800
0001F800
0003FC00
003FFF80
003FFF80
ENDCHAR

STARTCHAR r
ENCODING 114
SWIDTH 519 0
DWIDTH 26 0
BBX 27 24 1 0
BITMAP
00F03E00
1FF0FF00
3FF1FF80
07F39F80
03E71F80
03E61F80
03EC1F00
03EC0F00
03F80000
07D80000
07F00000
07F00000
07E00000
0FE00000
0FE00000
0FC00000
1FC00000
1FC00000
1F800000
1F800000
3F800000
3F000000
3F000000
7F000000
ENDCHAR

STARTCHAR s
ENCODING 115
SWIDTH 481 0
DWIDTH 24 0
BBX 26 25 -1 -1
BITMAP
000FE000
007FF800
00FC3E00
01F01E00
03E03F00
03E03F00
07E03F00
07E01E00
07F80C00
07FE0000
07FFC000
03FFF000
01FFF800
00FFF800
003FFC00
0E07FC00
1F01FC00
3F00FC00
3F00FC00
3F00F800
3E00F800
1E01F000
1F07E000
07FFC000
01FE0000
ENDCHAR

STARTCHAR t
ENCODING 116
SWIDTH 407 0
DWIDTH 20 0
BBX 20 32 2 -1
BITMAP
007F00
007E00
007E00
00FE00
00FC00
00FC00
01FC00
01FC00
3FFFC0
3FFFC0
3FFFC0
03F000
03F000
07F000
07F000
07E000
07E000
0FE000
0FC000
0FC000
1FC000
1FC000
1F8000
1F8100
3F8300
3F8700
3F0E00
3F0C00
3FB800
3FF800
1FE000
0FC000
ENDCHAR

STARTCHAR u
ENCODING 117
SWIDTH 685 0
DWIDTH 34 0
BBX 32 24 2 -1
BITMAP
3FFC01F8
3FF803F8
07F803F0
03F803F0
03F007F0
07F007E0
07F007E0
07E00FE0
07E00FC0
0FE00FC0
0FC01FC0
0FC01FC0
1FC03F80
1F803F80
1F807F80
3F807F0C
3F80FF0C
3F01FF1C
3F03FE18
3F077E30
3F9E7E70
3FFC7FE0
1FF03FC0
0FC03F00
ENDCHAR

STARTCHAR v
ENCODING 118
SWIDTH 556 0
DWIDTH 28 0
BBX 27 24 2 -1
BITMAP
3FF01F00
3FF01F00
7FF01F80
07F01F80
07E00F80
0FE00780
0FE00380
0FC00380
0FC00380
1FC00300
1F800300
1F800700
1F800600
3F800600
3F800C00
3F001C00
3F001800
3F003800
3F007000
3F80E000
1FC3C000
0FFF8000
07FE0000
01F80000
ENDCHAR

STARTCHAR w
ENCODING 119
SWIDTH 833 0
DWIDTH 42 0
BBX 40 25 1 -1
BITMAP
0000000070
1FFC03F0F8
3FF807F0FC
07F807E0FC
03F807E0FC
03F007E07C
03F00FE03C
07F00FC01C
07F00FC01C
07E01FC018
0FE01FC018
0FE01F8018
0FC03F8038
1FC03F8030
1FC03F0030
1F807F0060
3F80FF0060
3F80FF00E0
3F01FF01C0
3F03BF0180
3F073F0380
3F8E3F8F00
3FFC1FFE00
1FF80FF800
07E007E000
ENDCHAR

STARTCHAR x
ENCODING 120
SWIDTH 574 0
DWIDTH 29 0
BBX 31 25 -1 -1
BITMAP
007800F0
01FC03F8
03FE07FC
03FF0FFC
077F0DF8
063F18F8
0C3FB870
0C3FB000
001FF000
001FE000
000FC000
000FC000
000FE000
0007E000
0007E000
0007F000
000FF000
000FF018
1C1BF830
3E39F870
7F71FCE0
7FE1FFC0
7FC0FF80
3F80FF00
1F007C00
ENDCHAR

STARTCHAR y
ENCODING 121
SWIDTH 519 0
DWIDTH 26 0
BBX 31 34 -5 -9
BITMAP
003E0078
007F00FC
00FF00FC
01FF80FC
019F807C
030FC078
030FC078
020FC078
0007E070
0007E070
0007E060
0003F0E0
0003F0C0
0003F1C0
0003F180
0003FB80
0001FB00
0001FF00
0001FE00
0001FC00
0000FC00
0000F800
0000F000
0000F000
0000E000
0001C000
00018000
1C038000
3E070000
7E0E0000
7E3C0000
3FF00000
3FE00000
1F800000
ENDCHAR

STARTCHAR z
ENCODING 122
SWIDTH 519 0
DWIDTH 26 0
BBX 29 25 -1 -1
BITMAP
003F0000
00FFC060
01FFF8E0
03FFFFE0
07FFFFC0
060FFF80
0C01FB80
04000700
00001E00
00007C00
0001F800
0007E000
001FC000
003F0000
00FC0000
01F00000
07C00000
0F000180
0C7F0180
1BFFE700
3FFFFF00
3FFFFE00
71FFFC00
703FF800
6007E000
ENDCHAR

STARTCHAR braceleft
ENCODING 123
SWIDTH 407 0
DWIDTH 20 0
BBX 24 46 3 -9
BITMAP
00003C
0000F8
0003E0
000780
000F80
001F00
003F00
003F00
007F00
007F00
007F00
007F00
007F00
007E00
007E00
007E00
00FC00
00FC00
00F800
01F000
03C000
078000
3C0000
380000
1E0000
078000
07C000
07C000
07E000
07E000
07E000
0FE000
0FC000
1FC000
1FC000
3F8000
3F8000
3F0000
7F0000
7E0000
7E0000
3E0000
3E0000
1E0000
0F0000
03C000
ENDCHAR

STARTCHAR bar
ENCODING 124
SWIDTH 606 0
DWIDTH 30 0
BBX 7 45 13 -9
BITMAP
7C
7C
7C
7C
7C
7C
7C
7C
7C
7C
7C
7C
7C
7C
7C
7C
7C
7C
7C
7C
7C
7C
7C
7C
7C
7C
7C
7C
7C
7C
7C
7C
7C
7C
7C
7C
7C
7C
7C
7C
7C
7C
7C
7C
7C
ENDCHAR

STARTCHAR braceright
ENCODING 125
SWIDTH 407 0
DWIDTH 20 0
BBX 24 46 -4 -9
BITMAP
0003C0
0001F0
000078
00007C
00007E
00007E
00007E
0000FE
0000FE
0001FC
0001FC
0003F8
0003F8
0003F8
0003F0
0007F0
0007E0
0007E0
0003E0
0003E0
0001E0
0000F0
00003C
00001C
0000F0
0003C0
000780
001F80
001F00
003F00
007F00
007F00
007F00
007E00
00FE00
00FE00
00FE00
00FE00
00FE00
00FC00
00F800
01F800
01F000
03E000
0F8000
3E0000
ENDCHAR

STARTCHAR asciitilde
ENCODING 126
SWIDTH 606 0
DWIDTH 30 0
BBX 31 8 2 13
BITMAP
03F00008
0FFE0018
0FFFC018
1FFFF030
181FFFF0
3003FFE0
3000FFC0
30001F80
ENDCHAR

STARTCHAR space
ENCODING 160
SWIDTH 287 0
DWIDTH 19 0
BBX 0 0 0 0
BITMAP
ENDCHAR

STARTCHAR Aogonek
ENCODING 161
SWIDTH 741 0
DWIDTH 37 0
BBX 41 46 -4 -10
BITMAP
0000001E0000
0000003E0000
0000003E0000
0000007E0000
000000FE0000
000000FE0000
000001FF0000
000001FF0000
000003FF0000
0000077F0000
0000077F0000
00000E7F0000
00001C7F0000
00001C7F8000
0000387F8000
0000707F8000
0000703F8000
0000E03F8000
0001E03F8000
0001C03F8000
0003803FC000
0003803FC000
0007FFFFC000
000FFFFFC000
000FFFFFC000
001C001FC000
0038001FC000
0038001FE000
0070001FE000
00F0001FE000
00E0001FE000
01E0000FE000
03E0000FE000
0FF0001FF800
3FFE01FFFF00
3FFE01FFFE00
000000038000
000000070000
0000000F0000
0000000F0000
0000000F8000
0000000F8000
0000000FC000
00000007FC00
00000003FE00
00000001FC00
ENDCHAR

STARTCHAR afii240
ENCODING 162
SWIDTH 500 0
DWIDTH 25 0
BBX 31 22 -4 0
BITMAP
01FFE7FC
007FC3E0
007F8380
003F0300
007F0600
007E0C00
007E1800
007E3800
00FCF800
00FDF800
00FFFC00
01FEFC00
01FCFC00
01F8FC00
01F8FE00
03F07E00
03F07E00
03F07F00
07F07F00
07F07F80
1FF0FFC0
3FF9FFF0
ENDCHAR

STARTCHAR Rcommaaccent
ENCODING 163
SWIDTH 796 0
DWIDTH 40 0
BBX 42 46 -2 -10
BITMAP
007FFFFFE000
007FFFFFF800
0003FE03FC00
0003FC00FE00
0003FC00FF00
0003FC007F80
0003F8007F80
0007F8007F80
0007F8007F80
0007F0007F80
0007F0007F80
000FF000FF00
000FF001FF00
000FE001FE00
001FE007FC00
001FE01FF000
001FFFFFC000
001FFFE00000
003FC0FC0000
003FC07E0000
003F803F0000
003F803F0000
007F803F8000
007F803F8000
007F003FC000
00FF003FC000
00FF003FC000
00FF003FC000
00FE003FC000
01FE003FC100
01FE003FC300
01FE003FC700
03FC003FEE00
07FE001FFC00
3FFFF00FF800
7FFFE007F000
000000000000
000000000000
000000000000
0000F0000000
0001F8000000
0001F8000000
0000F8000000
000030000000
000030000000
0000C0000000
ENDCHAR

STARTCHAR currency
ENCODING 164
SWIDTH 574 0
DWIDTH 29 0
BBX 29 25 2 4
BITMAP
0C000180
1E1FC3C0
3F7FFFE0
3FFFFFE0
1FFFFFC0
0FF07F80
07C01F00
0F800F80
0F000780
1F0007C0
1E0003C0
1E0003C0
1E0003C0
1E0003C0
1F0003C0
1F0007C0
0F000780
0F800F80
07C01F00
0FF07F80
1FFFFFC0
3FFFFFE0
3F7FF7E0
1E1FC3C0
0C000180
ENDCHAR

STARTCHAR Itilde
ENCODING 165
SWIDTH 444 0
DWIDTH 22 0
BBX 29 48 -1 0
BITMAP
0003F010
0007FC30
000FFFE0
000FFFE0
0018FFC0
00101F80
00000000
00000000
00000000
00000000
00000000
00000000
007FFFE0
007FFFC0
0007FC00
0003FC00
0003F800
0007F800
0007F800
0007F000
000FF000
000FF000
000FF000
000FE000
001FE000
001FE000
001FC000
001FC000
003FC000
003FC000
003F8000
003F8000
007F8000
007F8000
007F0000
00FF0000
00FF0000
00FF0000
00FE0000
01FE0000
01FE0000
01FC0000
01FC0000
03FC0000
03FC0000
07FC0000
3FFFE000
7FFFE000
ENDCHAR

STARTCHAR Lcommaaccent
ENCODING 166
SWIDTH 704 0
DWIDTH 35 0
BBX 37 46 -2 -10
BITMAP
003FFFF800
003FFFF000
0003FE0000
0001FE0000
0001FC0000
0003FC0000
0003FC0000
0003F80000
0007F80000
0007F80000
0007F80000
0007F00000
000FF00000
000FF00000
000FE00000
000FE00000
001FE00000
001FE00000
001FC00000
001FC00000
003FC00000
003FC00000
003F800000
007F800000
007F800060
007F800060
007F0000E0
00FF0001E0
00FF0001C0
00FE0003C0
00FE0007C0
01FE000F80
01FE003F80
03FE00FF80
3FFFFFFF80
3FFFFFFF00
0000000000
0000000000
0000000000
0003C00000
0007E00000
0007E00000
0003E00000
0000C00000
0000C00000
0003000000
ENDCHAR

STARTCHAR section
ENCODING 167
SWIDTH 500 0
DWIDTH 25 0
BBX 29 46 -1 -9
BITMAP
00007F00
0001FFC0
0007C3E0
000783E0
000F03F0
001F07F0
001F07F0
001F03E0
001F81C0
001F8000
001FC000
001FE000
000FE000
000FF000
001FF800
007FFC00
00E3FC00
01E3FE00
03C1FE00
03C0FF00
07C07F00
07E07F00
07E03F00
07E03F00
07F01F00
07F81F00
03F81E00
03FC1E00
01FE1C00
01FE3800
00FFF000
007FE000
003FC000
003FC000
001FC000
000FE000
000FE000
1C07E000
3F07E000
7F03E000
7F03C000
7F03C000
3E078000
3F0F0000
1FFE0000
03F80000
ENDCHAR

STARTCHAR hungarumlaut
ENCODING 168
SWIDTH 333 0
DWIDTH 17 0
BBX 24 9 3 27
BITMAP
00E038
01F07C
03F8FE
07F1FC
07F1FC
0FC3F0
1F07C0
1C0F00
300C00
ENDCHAR

STARTCHAR Scaron
ENCODING 169
SWIDTH 685 0
DWIDTH 34 0
BBX 35 51 1 -1
BITMAP
0000800080
0000400300
0000600E00
0000703C00
000078F800
00007FF000
00003FE000
00003FC000
00003F8000
00003F0000
0000000000
0000000000
0000000000
0001FF0000
0007FFC0C0
000FC1F1C0
003F007FC0
003C003F80
007C001F80
00F8000F80
00F8000F80
00F8000F00
01F8000700
01F8000700
01FC000700
01FE000700
01FF800600
00FFF00000
00FFFC0000
00FFFF8000
007FFFC000
003FFFF000
001FFFF800
0007FFFC00
0001FFFC00
00003FFE00
0E000FFE00
0E0003FE00
0E0001FE00
0E0000FE00
1E00007E00
1E00007E00
1E00007C00
1F00007C00
1F0000FC00
3F8000F800
3FC001F000
3BF003E000
39FC1FC000
007FFF0000
000FFC0000
ENDCHAR

STARTCHAR Emacron
ENCODING 170
SWIDTH 741 0
DWIDTH 37 0
BBX 41 47 -1 0
BITMAP
00007FFFC000
00007FFFC000
0000FFFF8000
0000FFFF8000
000000000000
000000000000
000000000000
000000000000
000000000000
000000000000
000000000000
00FFFFFFFE00
00FFFFFFFE00
0007FC01FE00
0003F8007E00
0007F8003C00
0007F8003C00
0007F8001C00
0007F0001C00
000FF0001800
000FF0001800
000FE00C1800
000FE01C0000
001FE0180000
001FE0380000
001FC0780000
003FC1F80000
003FFFF00000
003FFFF00000
003F87F00000
007F81E00000
007F81E00000
007F00E00000
007F00E00000
00FF00C03000
00FF00C07000
00FE00C06000
01FE0000E000
01FE0000E000
01FE0001E000
01FC0003C000
03FC0007C000
03FC000FC000
03FC003F8000
07FC01FF8000
7FFFFFFF8000
7FFFFFFF0000
ENDCHAR

STARTCHAR Gcommaaccent
ENCODING 171
SWIDTH 815 0
DWIDTH 41 0
BBX 41 48 1 -11
BITMAP
00001FFC0000
0000FFFF0C00
0003FE0F9C00
0007F003FC00
001FE001F800
003FC000F800
007F8000F800
00FF00007800
01FE00007800
03FE00007800
03FC00003000
07FC00003000
07F800003000
0FF800003000
0FF800000000
1FF000000000
1FF000000000
1FF000000000
3FE000000000
3FE000000000
3FE000FFFE00
3FE001FFFE00
3FE0001FF000
3FC0000FE000
3FC0001FE000
3FC0001FE000
3FC0001FC000
3FC0001FC000
1FE0003FC000
1FE0003FC000
1FE0003F8000
0FF0007F8000
07F0007F8000
07F800F70000
03FC01E70000
00FF07870000
007FFF070000
000FF8000000
000000000000
000000000000
0003C0000000
0007E0000000
0007E0000000
0007E0000000
0000E0000000
0000C0000000
000300000000
000400000000
ENDCHAR

STARTCHAR afii237
ENCODING 172
SWIDTH 611 0
DWIDTH 31 0
BBX 34 33 2 0
BITMAP
03FFFFFF00
03FFFFFF00
07F1FE7F00
07C1FC1F00
0701FC0E00
0E03FC0600
0C03F80600
0803F80600
0803F80400
0007F80000
0007F00000
0007F00000
000FF00000
000FE00000
000FE00000
3FFFFFF000
3FFFFFF000
001FC00000
001FC00000
003FC00000
003F800000
003F800000
007F800000
007F000000
007F000000
00FF000000
00FF000000
00FE000000
00FE000000
01FE000000
03FE000000
07FF000000
3FFFC00000
ENDCHAR

STARTCHAR hyphen
ENCODING 173
SWIDTH 333 0
DWIDTH 17 0
BBX 20 5 -2 9
BITMAP
1FFFE0
1FFFC0
1FFFC0
3FFFC0
3FFF80
ENDCHAR

STARTCHAR Zcaron
ENCODING 174
SWIDTH 704 0
DWIDTH 35 0
BBX 40 49 -1 0
BITMAP
0000060018
0000060070
00000301E0
00000387C0
000003FF80
000003FF00
000003FE00
000001FC00
000001F800
0000000000
0000000000
0000000000
0000000000
000FFFFFFC
000FFFFFFC
000FF007FC
001FC00FF8
001F001FF0
001E003FE0
003C003FC0
003C007FC0
003800FF80
007001FF00
007003FE00
006007FC00
002007F800
00000FF800
00001FF000
00003FE000
00007FC000
0000FF8000
0000FF0000
0001FF0000
0003FE0000
0007FC0000
000FF80000
001FF00080
003FE001C0
003FE001C0
007FC00380
00FF800380
01FF000780
03FE000F00
07FE001F00
07FC003F00
0FF8007E00
1FF003FE00
3FFFFFFE00
3FFFFFFE00
ENDCHAR

STARTCHAR macron
ENCODING 175
SWIDTH 333 0
DWIDTH 17 0
BBX 22 4 2 29
BITMAP
1FFFF0
1FFFF0
3FFFF0
3FFFE0
ENDCHAR

STARTCHAR degree
ENCODING 176
SWIDTH 400 0
DWIDTH 20 0
BBX 19 17 4 18
BITMAP
00F000
07FC00
0FFE00
1FFF00
3E0F80
3C0780
3803C0
7803C0
7803C0
7803C0
7803C0
3C0780
3E0F80
1FFF00
0FFE00
07FC00
00E000
ENDCHAR

STARTCHAR aogonek
ENCODING 177
SWIDTH 667 0
DWIDTH 33 0
BBX 31 34 2 -10
BITMAP
001F8060
007FC7E0
00FFE7E0
03FC7FE0
07F83FC0
07F03FC0
0FE03FC0
1FC01F80
1FC01F80
3F803F80
3F803F80
3F803F00
7F003F00
7F003F00
7F003F00
7F007E00
7F007E18
7F00FE38
7F00FE30
3F01FC70
3F83FCE0
3FCFFFC0
1FFEFF80
0FF87F00
03F07C00
0000E000
0000E000
0001E000
0001F000
0001F000
0001F800
0000FE00
00007FC0
00003F80
ENDCHAR

STARTCHAR ogonek
ENCODING 178
SWIDTH 333 0
DWIDTH 17 0
BBX 14 11 0 -10
BITMAP
0600
0E00
1C00
3C00
3C00
3E00
3F00
1F80
1FF8
0FF8
03C0
ENDCHAR

STARTCHAR rcommaaccent
ENCODING 179
SWIDTH 519 0
DWIDTH 26 0
BBX 28 34 1 -10
BITMAP
00F81F00
1FF87F80
1FF8FFC0
03F18FC0
03F30FC0
03F60FC0
03F60F80
03EC0700
03EC0000
03F80000
03F80000
07F00000
07F00000
07F00000
0FE00000
0FE00000
0FE00000
0FC00000
1FC00000
1FC00000
1F800000
3F800000
3F800000
3F000000
00000000
00000000
01800000
07E00000
07E00000
03E00000
00E00000
00C00000
01800000
06000000
ENDCHAR

STARTCHAR acute
ENCODING 180
SWIDTH 333 0
DWIDTH 17 0
BBX 14 9 7 27
BITMAP
00E0
03F0
03F0
07F0
0FE0
1FC0
1F00
3C00
2000
ENDCHAR

STARTCHAR itilde
ENCODING 181
SWIDTH 389 0
DWIDTH 19 0
BBX 21 35 2 -1
BITMAP
03E020
0FFC60
0FFFE0
1FFFC0
18FFC0
101F00
000000
000000
000000
000000
000000
0FFC00
3FF800
3FF800
03F800
03F000
03F000
07F000
07F000
07E000
07E000
0FE000
0FC000
0FC000
1FC000
1FC000
1F8200
1F8700
3F8600
3F0C00
3F1C00
3F3800
3FF000
1FE000
1F8000
ENDCHAR

STARTCHAR lcommaaccent
ENCODING 182
SWIDTH 389 0
DWIDTH 19 0
BBX 20 47 1 -10
BITMAP
000040
01FFC0
01FFC0
003FC0
001F80
001F80
003F80
003F00
003F00
007F00
007F00
007E00
007E00
00FE00
00FC00
00FC00
01FC00
01FC00
01F800
01F800
03F800
03F000
03F000
07F000
07F000
07E000
07E000
0FE000
0FC000
0FC300
1FC700
1F8600
1F8E00
1F9C00
1FF800
1FF000
0FE000
070000
000000
000000
1E0000
3F0000
3F0000
0F0000
060000
0C0000
380000
ENDCHAR

STARTCHAR caron
ENCODING 183
SWIDTH 333 0
DWIDTH 17 0
BBX 20 9 5 27
BITMAP
2000C0
300380
380F00
1C3E00
1EFC00
1FF800
1FF000
0FE000
0FC000
ENDCHAR

STARTCHAR commaaccent
ENCODING 184
SWIDTH 333 0
DWIDTH 17 0
BBX 10 7 4 -10
BITMAP
1E00
3F00
3F00
0F00
0600
0C00
3800
ENDCHAR

STARTCHAR scaron
ENCODING 185
SWIDTH 481 0
DWIDTH 24 0
BBX 30 37 -1 -1
BITMAP
00080030
000C00E0
000E03C0
000F0F80
00073F00
0007FE00
0007FC00
0007F800
0003F000
00000000
00000000
00000000
000FE000
007FFC00
00FC3E00
01F01E00
03E03F00
03E03F00
07E03F00
07E01E00
07F80C00
07FE0000
07FFC000
03FFF000
01FFF800
00FFF800
003FFC00
0E07FC00
1F01FC00
3F00FC00
3F00FC00
3F00F800
3E00F800
1E01F000
1F03E000
07FFC000
01FE0000
ENDCHAR

STARTCHAR emacron
ENCODING 186
SWIDTH 519 0
DWIDTH 26 0
BBX 28 34 0 -1
BITMAP
003FFFE0
003FFFC0
007FFFC0
007FFFC0
00000000
00000000
00000000
00000000
00000000
0007F800
001FFE00
007E7E00
00F83F00
01F03F00
03F03F00
07E03F00
0FE07F00
0FE07E00
1FC0FE00
1FC1FC00
3FC3F000
3FCFE000
3FFF0000
3FF00000
3F800000
3F800000
3F800000
3F800C00
1FC01C00
1FC03800
0FE0F000
07FFE000
03FF8000
007E0000
ENDCHAR

STARTCHAR gcommaaccent
ENCODING 187
SWIDTH 611 0
DWIDTH 31 0
BBX 35 46 -3 -9
BITMAP
0000018000
0000060000
00000C0000
00001C0000
00001F8000
00001F8000
00001F8000
00000F0000
0000000000
0000000000
0000000F80
0000001F80
0001FF7FC0
0007FFE7C0
001FC3F380
003F81F800
007F01F800
007E01FC00
007E01FC00
00FE01FC00
00FE01FC00
00FE01FC00
007E01F800
007E03F800
003E07F000
001F0FE000
007FFFC000
01FFFE0000
03C0000000
0380000000
07C0000000
07FFF00000
07FFFF8000
07FFFFC000
07FFFFE000
03FFFFF000
01FFFFF000
0FC00FF000
3F0003F000
7E0003F000
7E0003E000
7E0003E000
3F0007C000
3FC03F8000
0FFFFE0000
01FFE00000
ENDCHAR

STARTCHAR afii253
ENCODING 188
SWIDTH 278 0
DWIDTH 14 0
BBX 18 30 -1 -1
BITMAP
000200
000600
000E00
001C00
003C00
00FC00
01F800
07FF00
1FFF00
1FFF00
03F000
03F000
03F000
07E000
07E000
3FFC00
7FFC00
0FC000
0FC000
0FC000
1FC000
1F8000
1F8000
1F8000
3F0800
3F1000
3F3000
3FE000
3FC000
1F0000
ENDCHAR

STARTCHAR afii238
ENCODING 189
SWIDTH 775 0
DWIDTH 39 0
BBX 43 35 -3 -1
BITMAP
003FFC03F000
0007FC1FFC00
0003FC387E00
0003FCE03F00
0003F9C01F80
0003FB001F80
0003FE001F80
0007FC001FC0
0007F8001FC0
0007F8001FC0
000FF0001FC0
000FE0003FC0
000FE0003FC0
000FE0003FC0
001FE0007FC0
001FC0007FC0
001FC0007F80
003FC0007F80
003F8000FF80
003F8000FF80
003F8000FF00
007F8000FF00
007F0001FE00
007F0001FE00
00FF0001FC00
00FE0003FC00
00FE0003F800
00FE03C3F000
01FE07E3F000
01FC07E7E000
01FC0FC7C000
03FC0FCF8000
07FE0FCE0000
3FFFC7FC0000
000003F00000
ENDCHAR

STARTCHAR zcaron
ENCODING 190
SWIDTH 519 0
DWIDTH 26 0
BBX 31 37 -1 -1
BITMAP
00040018
00060070
000701E0
000787C0
00039F80
0003FF00
0003FE00
0003FC00
0001F800
00000000
00000000
00000000
003F0000
00FFC060
01FFF8E0
03FFFFE0
07FFFFC0
060FFF80
0C01FB80
04000700
00001E00
00007C00
0001F800
0007E000
001FC000
003F0000
00FC0000
01F00000
07C00000
0F000180
0C7F0180
1BFFE700
3FFFFF00
3FFFFE00
71FFFC00
703FF800
6007E000
ENDCHAR

STARTCHAR afii254
ENCODING 191
SWIDTH 477 0
DWIDTH 24 0
BBX 27 34 -2 -11
BITMAP
000C0600
03FC1F80
0FF83F80
03F87F80
03F8FF80
03F19F80
03F21F80
03F63F80
07F43F00
07E83F00
07F03F00
07F07E00
0FE07E00
0FE07E00
0FC0FE00
1FC0FC00
1F80FC00
1F81FC00
3F81F800
3F01F800
3F01F800
3F03F000
7F03F000
0003F000
0007E000
0007E000
0007C000
0007C000
000F8000
078F8000
078F0000
0F9F0000
073C0000
03F00000
ENDCHAR

STARTCHAR Amacron
ENCODING 192
SWIDTH 741 0
DWIDTH 37 0
BBX 41 46 -4 0
BITMAP
000003FFFE00
000003FFFE00
000007FFFE00
000007FFFC00
000000000000
000000000000
000000000000
000000000000
000000000000
000000000000
0000001E0000
0000001E0000
0000003E0000
0000007E0000
0000007E0000
000000FF0000
000001FF0000
000001FF0000
000003FF0000
0000077F0000
0000077F0000
00000E7F0000
00001C7F8000
00001C7F8000
0000387F8000
0000383F8000
0000703F8000
0000E03F8000
0000E03F8000
0001C03FC000
0003803FC000
0003803FC000
0007FFFFC000
000FFFFFC000
000FFFFFC000
001C001FC000
003C001FE000
0038001FE000
0070001FE000
0070001FE000
00E0000FE000
01E0000FE000
03E0000FF000
0FF8001FF800
3FFE01FFFF00
3FFE01FFFE00
ENDCHAR

STARTCHAR Aacute
ENCODING 193
SWIDTH 741 0
DWIDTH 37 0
BBX 41 49 -4 0
BITMAP
00000001E000
00000003F000
00000007F000
00000007F000
0000000FE000
0000001FC000
0000001E0000
000000380000
000000200000
000000000000
000000000000
000000000000
000000000000
0000001E0000
0000001E0000
0000003E0000
0000007E0000
0000007E0000
000000FF0000
000001FF0000
000001FF0000
000003FF0000
0000077F0000
0000077F0000
00000E7F0000
00001C7F8000
00001C7F8000
0000387F8000
0000383F8000
0000703F8000
0000E03F8000
0000E03F8000
0001C03FC000
0003803FC000
0003803FC000
0007FFFFC000
000FFFFFC000
000FFFFFC000
001C001FC000
003C001FE000
0038001FE000
0070001FE000
0070001FE000
00E0000FE000
01E0000FE000
03E0000FF000
0FF8001FF800
3FFE01FFFF00
3FFE01FFFE00
ENDCHAR

STARTCHAR Acircumflex
ENCODING 194
SWIDTH 741 0
DWIDTH 37 0
BBX 41 49 -4 0
BITMAP
0000000FC000
0000001FC000
0000003FC000
0000007FE000
000000F9E000
000001E0E000
000003806000
000006003000
000008001000
000000000000
000000000000
000000000000
000000000000
0000001E0000
0000001E0000
0000003E0000
0000007E0000
0000007E0000
000000FF0000
000001FF0000
000001FF0000
000003FF0000
0000077F0000
0000077F0000
00000E7F0000
00001C7F8000
00001C7F8000
0000387F8000
0000383F8000
0000703F8000
0000E03F8000
0000E03F8000
0001C03FC000
0003803FC000
0003803FC000
0007FFFFC000
000FFFFFC000
000FFFFFC000
001C001FC000
003C001FE000
0038001FE000
0070001FE000
0070001FE000
00E0000FE000
01E0000FE000
03E0000FF000
0FF8001FF800
3FFE01FFFF00
3FFE01FFFE00
ENDCHAR

STARTCHAR Atilde
ENCODING 195
SWIDTH 741 0
DWIDTH 37 0
BBX 41 48 -4 0
BITMAP
000000F80400
000001FF0800
000003FFF800
000003FFF800
0000063FF000
00000407E000
000000000000
000000000000
000000000000
000000000000
000000000000
000000000000
0000001E0000
0000001E0000
0000003E0000
0000007E0000
0000007E0000
000000FF0000
000001FF0000
000001FF0000
000003FF0000
0000077F0000
0000077F0000
00000E7F0000
00001C7F8000
00001C7F8000
0000387F8000
0000383F8000
0000703F8000
0000E03F8000
0000E03F8000
0001C03FC000
0003803FC000
0003803FC000
0007FFFFC000
000FFFFFC000
000FFFFFC000
001C001FC000
003C001FE000
0038001FE000
0070001FE000
0070001FE000
00E0000FE000
01E0000FE000
03E0000FF000
0FF8001FF800
3FFE01FFFF00
3FFE01FFFE00
ENDCHAR

STARTCHAR Adieresis
ENCODING 196
SWIDTH 741 0
DWIDTH 37 0
BBX 41 48 -4 0
BITMAP
000001C06000
000003E0F800
000007F1F800
000007F1F800
000007F1F800
000003E0F000
000001C06000
000000000000
000000000000
000000000000
000000000000
000000000000
0000001E0000
0000001E0000
0000003E0000
0000007E0000
0000007E0000
000000FE0000
000001FF0000
000001FF0000
000003FF0000
0000077F0000
0000077F0000
00000E7F0000
00000E7F0000
00001C7F8000
0000387F8000
0000383F8000
0000703F8000
0000E03F8000
0000E03F8000
0001C03F8000
0003803F8000
0003803FC000
0007FFFFC000
000FFFFFC000
000FFFFFC000
001C001FC000
001C001FC000
0038001FC000
0070001FE000
0070001FE000
00E0000FE000
01E0000FE000
03F0000FE000
0FF8001FF000
3FFE01FFFE00
3FFE01FFFE00
ENDCHAR

STARTCHAR Aring
ENCODING 197
SWIDTH 741 0
DWIDTH 37 0
BBX 41 50 -4 0
BITMAP
0000001F0000
0000007F8000
00000073C000
000000E1C000
000000C0C000
000000C0C000
000000E1C000
00000073C000
0000007F8000
0000001F0000
000000000000
000000000000
000000000000
000000000000
0000001E0000
0000003E0000
0000003E0000
0000007E0000
000000FE0000
000000FE0000
000001FE0000
000003FF0000
000003FF0000
000007FF0000
00000E7F0000
00000E7F0000
00001C7F0000
0000387F0000
0000387F8000
0000707F8000
0000707F8000
0000E07F8000
0001C03F8000
0001C03F8000
0003803F8000
0007003FC000
0007FFFFC000
000FFFFFC000
001FFFFFC000
001C001FC000
0038001FC000
0078001FC000
0070001FC000
00E0001FE000
00E0001FE000
01E0001FE000
03E0001FE000
0FF0001FF000
3FFE01FFFE00
3FFE01FFFE00
ENDCHAR

STARTCHAR AE
ENCODING 198
SWIDTH 889 0
DWIDTH 44 0
BBX 52 36 -7 0
BITMAP
000007FFFFFFC0
000007FFFFFFC0
0000007FFC0FC0
0000003BF807C0
0000007BF803C0
00000073F803C0
000000E7F00180
000001E7F00180
000001C7F00180
0000038FF00180
0000078FE00180
0000070FE06180
00000E0FE0E000
00001C1FC0C000
00003C1FC1C000
0000381FC3C000
0000703FFFC000
0000F03FFF8000
0000E03FFF8000
0001C03F8F8000
0003C07F078000
0003FFFF070000
0007FFFF070000
000FFFFF070000
000E00FE070300
001C00FE060300
003C00FE000700
007801FC000700
007001FC000E00
00E001FC001E00
01E001FC001E00
01C003F8003E00
03C003F800FC00
0FC007FC03FC00
3FF83FFFFFFC00
3FF83FFFFFFC00
ENDCHAR

STARTCHAR Iogonek
ENCODING 199
SWIDTH 444 0
DWIDTH 22 0
BBX 29 46 -2 -10
BITMAP
003FFFE0
007FFFE0
0003FE00
0003FC00
0003FC00
0003FC00
0003F800
0007F800
0007F800
0007F800
0007F000
000FF000
000FF000
000FE000
000FE000
001FE000
001FE000
001FC000
001FC000
003FC000
003FC000
003F8000
003F8000
007F8000
007F8000
007F0000
00FF0000
00FF0000
00FE0000
00FE0000
01FE0000
01FE0000
01FE0000
03FE0000
3FFFF000
3FFFE000
00E00000
01C00000
03C00000
03C00000
03E00000
03E00000
03F00000
01FF0000
00FF8000
007F0000
ENDCHAR

STARTCHAR Ccaron
ENCODING 200
SWIDTH 759 0
DWIDTH 38 0
BBX 37 50 4 -1
BITMAP
0000400180
0000600700
0000301E00
0000387C00
00003DF800
00003FF000
00001FE000
00001FC000
00001F8000
0000000000
0000000000
0000000000
00003F8000
0003FFF000
000FFFF870
001FE03E70
007F800FE0
00FF0007E0
01FE0007E0
03FC0003E0
03FC0003E0
07F80001C0
0FF00001C0
0FF00001C0
1FE00001C0
1FE00001C0
1FE0000180
3FC0000000
3FC0000000
3FC0000000
3FC0000000
7F80000000
7F80000000
7F80000000
7F80000000
7F80000000
7F80000000
7F80000000
7F80000600
7F80000600
3FC0000E00
3FC0000E00
1FC0001C00
1FE0003800
0FF0007800
07F800F000
03FE03C000
01FFFF8000
007FFE0000
000FF00000
ENDCHAR

STARTCHAR Eacute
ENCODING 201
SWIDTH 741 0
DWIDTH 37 0
BBX 41 49 -1 0
BITMAP
0000000F0000
0000001F8000
0000001F8000
0000003F8000
0000007F0000
000000FE0000
000000F00000
000001C00000
000001000000
000000000000
000000000000
000000000000
000000000000
00FFFFFFFE00
00FFFFFFFE00
0007FC01FE00
0003F8007E00
0007F8003C00
0007F8003C00
0007F8001C00
0007F0001C00
000FF0001800
000FF0001800
000FE00C1800
000FE01C0000
001FE0180000
001FE0380000
001FC0780000
003FC1F80000
003FFFF00000
003FFFF00000
003F87F00000
007F81E00000
007F81E00000
007F00E00000
007F00E00000
00FF00C03000
00FF00C07000
00FE00C06000
01FE0000E000
01FE0000E000
01FE0001E000
01FC0003C000
03FC0007C000
03FC000FC000
03FC003F8000
07FC01FF8000
7FFFFFFF8000
7FFFFFFF0000
ENDCHAR

STARTCHAR Eogonek
ENCODING 202
SWIDTH 741 0
DWIDTH 37 0
BBX 41 46 -1 -10
BITMAP
007FFFFFFF00
007FFFFFFF00
0003FE00FE00
0003FC007E00
0003FC003E00
0003F8001E00
0007F8001C00
0007F8001C00
0007F0001C00
0007F0001C00
000FF00C1800
000FF00C0000
000FE01C0000
000FE03C0000
001FE0780000
001FC1F80000
001FFFF80000
003FFFF00000
003FC3F00000
003F81F00000
003F80F00000
007F80E00000
007F80E00000
007F00E03800
007F00E03000
00FF00C03000
00FF00007000
00FE0000E000
01FE0000E000
01FE0001E000
01FC0003C000
01FC0007C000
03FC001FC000
07FE01FFC000
3FFFFFFF8000
3FFFFFFF8000
000000700000
000000E00000
000001E00000
000001E00000
000001F00000
000001F00000
000001F80000
000000FF8000
0000007FC000
0000003F8000
ENDCHAR

STARTCHAR Edieresis
ENCODING 203
SWIDTH 741 0
DWIDTH 37 0
BBX 41 48 -1 0
BITMAP
000006038000
00000F87C000
00001F87E000
00001F8FE000
00001F87E000
00000F07C000
000006018000
000000000000
000000000000
000000000000
000000000000
000000000000
007FFFFFFE00
007FFFFFFE00
0007FE01FE00
0003FC007E00
0003F8003C00
0003F8003C00
0007F8001C00
0007F8001C00
0007F0001800
000FF0001800
000FF00C1800
000FE01C0000
000FE0180000
001FE0380000
001FE0780000
001FC1F80000
001FFFF00000
003FFFF00000
003FC3F00000
003F81F00000
007F80E00000
007F80E00000
007F00E00000
007F00E03000
00FF00C07000
00FF00C06000
00FE0000E000
00FE0000E000
01FE0001E000
01FE0003C000
01FC0007C000
03FC000FC000
03FC003F8000
07FE01FF8000
3FFFFFFF8000
3FFFFFFF0000
ENDCHAR

STARTCHAR Edotaccent
ENCODING 204
SWIDTH 741 0
DWIDTH 37 0
BBX 41 48 -1 0
BITMAP
000000300000
0000007C0000
000000FC0000
000000FC0000
000000FC0000
000000780000
000000300000
000000000000
000000000000
000000000000
000000000000
000000000000
007FFFFFFF00
007FFFFFFE00
0003FE00FE00
0003FC007E00
0003FC003E00
0003F8001E00
0007F8001C00
0007F8001C00
0007F0001C00
000FF0001C00
000FF00C1800
000FF00C0000
000FE01C0000
001FE0380000
001FE0780000
001FC1F80000
001FFFF80000
003FFFF00000
003FC3F00000
003F81F00000
003F80F00000
007F80E00000
007F80E00000
007F00E03000
00FF00E03000
00FF00C07000
00FE00007000
00FE0000E000
01FE0000E000
01FE0001E000
01FC0003C000
01FC000FC000
03FC001FC000
07FE01FF8000
3FFFFFFF8000
3FFFFFFF8000
ENDCHAR

STARTCHAR Iacute
ENCODING 205
SWIDTH 444 0
DWIDTH 22 0
BBX 28 49 -1 0
BITMAP
00000F00
00001F80
00003F80
00007F00
00007F00
0000FC00
0001F000
0003C000
00000000
00000000
00000000
00000000
00000000
007FFFE0
007FFFC0
0007FC00
0003FC00
0003F800
0007F800
0007F800
0007F000
000FF000
000FF000
000FF000
000FE000
001FE000
001FE000
001FC000
001FC000
003FC000
003FC000
003F8000
003F8000
007F8000
007F8000
007F0000
00FF0000
00FF0000
00FF0000
00FE0000
01FE0000
01FE0000
01FC0000
01FC0000
03FC0000
03FC0000
07FC0000
3FFFE000
7FFFE000
ENDCHAR

STARTCHAR Icircumflex
ENCODING 206
SWIDTH 444 0
DWIDTH 22 0
BBX 29 49 -1 0
BITMAP
00001F80
00003FC0
00007FC0
0000FFC0
0001F1C0
0003C0E0
000700E0
000C0060
00100020
00000000
00000000
00000000
00000000
007FFFE0
007FFFC0
0007FC00
0003FC00
0003F800
0007F800
0007F800
0007F000
000FF000
000FF000
000FF000
000FE000
001FE000
001FE000
001FC000
001FC000
003FC000
003FC000
003F8000
003F8000
007F8000
007F8000
007F0000
00FF0000
00FF0000
00FF0000
00FE0000
01FE0000
01FE0000
01FC0000
01FC0000
03FC0000
03FC0000
07FC0000
3FFFE000
7FFFE000
ENDCHAR

STARTCHAR Imacron
ENCODING 207
SWIDTH 444 0
DWIDTH 22 0
BBX 29 46 -1 0
BITMAP
001FFFF0
003FFFE0
003FFFE0
003FFFE0
00000000
00000000
00000000
00000000
00000000
00000000
007FFFE0
007FFFC0
0007FC00
0003FC00
0003F800
0007F800
0007F800
0007F000
000FF000
000FF000
000FF000
000FE000
001FE000
001FE000
001FC000
001FC000
003FC000
003FC000
003F8000
003F8000
007F8000
007F8000
007F0000
00FF0000
00FF0000
00FF0000
00FE0000
01FE0000
01FE0000
01FC0000
01FC0000
03FC0000
03FC0000
07FC0000
3FFFE000
7FFFE000
ENDCHAR

STARTCHAR Eth
ENCODING 208
SWIDTH 833 0
DWIDTH 42 0
BBX 45 36 -3 0
BITMAP
003FFFFF8000
007FFFFFF000
0003FE07FC00
0001FC00FE00
0003FC007F00
0003FC003F80
0003FC003F80
0003F8003FC0
0007F8001FC0
0007F8001FE0
0007F0001FE0
0007F0001FE0
000FF0001FE0
000FF0001FE0
000FE0001FE0
001FE0001FE0
01FFFFC01FE0
03FFFF803FE0
03FFFF803FE0
003FC0003FC0
003FC0003FC0
003F80007FC0
003F80007F80
007F80007F80
007F8000FF80
007F0000FF00
00FF0001FF00
00FF0001FE00
00FF0003FC00
00FE0007F800
01FE000FF000
01FE001FE000
01FE007FC000
03FE01FF0000
3FFFFFFC0000
3FFFFFE00000
ENDCHAR

STARTCHAR Ncommaaccent
ENCODING 209
SWIDTH 852 0
DWIDTH 43 0
BBX 48 46 -1 -10
BITMAP
003FF8007FFC
003FFC007FFC
0007FC000FF0
0001FE0007C0
0001FE000380
0003FF000380
0003FF000300
0003FF800700
00037F800700
00073FC00700
00073FC00600
00071FE00E00
00061FE00E00
000E0FE00E00
000E0FF00C00
000E07F01C00
000C07F81C00
001C07F81800
001C03FC1800
001803FC3800
003801FE3800
003801FE3000
003800FF7000
003000FF7000
0070007FF000
0070007FE000
0070003FE000
0060003FE000
00E0003FE000
00E0001FC000
01E0001FC000
01F0000FC000
03F0000F8000
0FFC00078000
3FFF00078000
3FFF00038000
000000000000
000000000000
000000000000
000078000000
0000FC000000
0000FC000000
00003C000000
000018000000
000030000000
0000E0000000
ENDCHAR

STARTCHAR Omacron
ENCODING 210
SWIDTH 833 0
DWIDTH 42 0
BBX 41 48 2 -1
BITMAP
00003FFFE000
00003FFFE000
00003FFFE000
00007FFFC000
000000000000
000000000000
000000000000
000000000000
000000000000
000000000000
00003FF80000
0001FFFF0000
0007F83F8000
000FE00FC000
003F8007E000
007F0003F000
00FE0003F800
01FE0001FC00
03FC0001FC00
03FC0001FC00
07F80001FE00
0FF80001FE00
0FF00001FE00
1FF00001FE00
1FE00001FE00
3FE00001FE00
3FE00001FE00
3FC00003FE00
3FC00003FE00
7FC00003FE00
7FC00003FC00
7FC00007FC00
7F800007FC00
7F800007F800
7F80000FF800
7F80000FF800
7F80000FF000
3F80001FE000
3F80001FE000
3F80003FC000
1F80007F8000
1FC0007F0000
0FC000FE0000
07E001FC0000
03F007F80000
01FC1FE00000
007FFF800000
001FF8000000
ENDCHAR

STARTCHAR Kcommaaccent
ENCODING 211
SWIDTH 778 0
DWIDTH 39 0
BBX 47 46 -3 -10
BITMAP
003FFFE1FFF8
003FFFE1FFF8
0003FE007FE0
0003FC003F00
0003FC003C00
0003FC003800
0003F800F000
0007F801E000
0007F803C000
0007F8078000
0007F00E0000
000FF01C0000
000FF0380000
000FF0F00000
000FE1F00000
001FE3F00000
001FE7F00000
001FCFF80000
003FDFF80000
003FFBFC0000
003FF1FC0000
003FE1FE0000
007FC0FE0000
007F80FF0000
007F807F0000
007F007F8000
00FF003F8000
00FF003FC000
00FF001FC000
01FE001FE000
01FE000FE000
01FE000FF000
01FE000FF000
03FE000FFC00
3FFFE1FFFF00
3FFFE1FFFF00
000000000000
000000000000
000000000000
0000F0000000
0001F8000000
0001F8000000
0000F8000000
000030000000
000030000000
0000C0000000
ENDCHAR

STARTCHAR Ocircumflex
ENCODING 212
SWIDTH 833 0
DWIDTH 42 0
BBX 41 51 2 -1
BITMAP
0000007E0000
000000FE0000
000001FE0000
000003FE0000
000007FF0000
00000FCF0000
00001F070000
00003C030000
000060018000
000080008000
000000000000
000000000000
000000000000
00001FF80000
0000FFFE0000
0007F83F8000
000FE00FC000
003F8007E000
007F0003F000
00FE0003F800
01FE0001FC00
03FC0001FC00
03FC0001FC00
07F80001FE00
0FF80001FE00
0FF00001FE00
1FF00001FE00
1FE00001FE00
3FE00001FE00
3FE00001FE00
3FC00003FE00
3FC00003FE00
7FC00003FE00
7FC00003FC00
7FC00007FC00
7F800007FC00
7F800007F800
7F80000FF800
7F80000FF800
7F80000FF000
3F80001FE000
3F80001FE000
3F80003FC000
1F80007F8000
1FC0007F0000
0FC000FE0000
07E001FC0000
03F007F80000
01FC1FE00000
007FFF800000
001FF8000000
ENDCHAR

STARTCHAR Otilde
ENCODING 213
SWIDTH 833 0
DWIDTH 42 0
BBX 41 49 2 -1
BITMAP
000007E02000
00000FF86000
00001FFFC000
00001FFFC000
000031FF8000
0000203F0000
000000000000
000000000000
000000000000
000000000000
000000000000
00001FF80000
0000FFFE0000
0007F83F8000
000FE00FC000
003F8007E000
007F0003F000
00FE0003F800
01FE0001FC00
03FC0001FC00
03FC0001FC00
07F80001FE00
0FF80001FE00
0FF00001FE00
1FF00001FE00
1FE00001FE00
3FE00001FE00
3FE00001FE00
3FC00003FE00
3FC00003FE00
7FC00003FE00
7FC00003FC00
7FC00007FC00
7F800007FC00
7F800007F800
7F80000FF800
7F80000FF800
7F80000FF000
3F80001FE000
3F80001FE000
3F80003FC000
1F80007F8000
1FC0007F0000
0FC000FE0000
07E001FC0000
03F007F80000
01FC1FE00000
007FFF800000
001FF8000000
ENDCHAR

STARTCHAR Odieresis
ENCODING 214
SWIDTH 833 0
DWIDTH 42 0
BBX 41 49 2 -1
BITMAP
00000E030000
00001F07C000
00003F8FC000
00003F8FC000
00003F8FC000
00001F078000
000004030000
000000000000
000000000000
000000000000
000000000000
00001FF80000
0000FFFE0000
0007F83F8000
000FE00FC000
003FC007E000
007F0003F000
00FF0003F800
01FE0001FC00
03FC0001FC00
03FC0001FC00
07F80001FE00
0FF80001FE00
0FF00001FE00
1FF00001FE00
1FE00001FE00
3FE00001FE00
3FE00001FE00
3FC00003FE00
3FC00003FE00
7FC00003FE00
7FC00003FC00
7FC00007FC00
7F800007FC00
7F800007F800
7F80000FF800
7F80000FF800
7F80000FF000
3F80001FE000
3F80001FE000
3F80003FC000
1F80007F8000
1FC0007F0000
0FC000FE0000
07E001FC0000
03F007F80000
01FC1FE00000
007FFF800000
001FF8000000
ENDCHAR

STARTCHAR multiply
ENCODING 215
SWIDTH 650 0
DWIDTH 32 0
BBX 29 25 4 4
BITMAP
0C000180
1E0003C0
3F0007E0
1F800FE0
0FC01FC0
07E03F80
03F07F00
01F8FE00
00FDFC00
007FF800
003FF000
001FE000
001FC000
003FE000
007FF000
00FFF800
01FCFC00
03F87E00
07F03F00
0FE01F80
1FC00FC0
3F8007E0
3F0003E0
1E0001C0
0C000080
ENDCHAR

STARTCHAR Oslash
ENCODING 216
SWIDTH 833 0
DWIDTH 42 0
BBX 42 38 1 -1
BITMAP
00000FFC0000
0000FFFF8E00
0003FC1FDC00
0007F007F800
001FC003F000
003F8001F800
007F0001FC00
00FF0003FC00
01FE0007FE00
03FC000FFE00
03FC001EFF00
07F8003CFF00
07F80078FF00
0FF800F0FF00
0FF001E0FF00
1FF003C0FF00
1FF00781FF00
1FE00F01FF00
3FE01E01FF00
3FE03C01FF00
3FE03801FE00
3FE07003FE00
3FC0E003FE00
3FC1C003FC00
3FC38007FC00
3FC70007FC00
3FCF0007F800
1FDE000FF000
1FFC000FF000
1FF8001FE000
0FF0001FC000
07E0003F8000
07E0007F0000
07F000FE0000
0FF803FC0000
1EFE0FF00000
3C7FFFC00000
000FFC000000
ENDCHAR

STARTCHAR Uogonek
ENCODING 217
SWIDTH 833 0
DWIDTH 42 0
BBX 42 46 5 -10
BITMAP
3FFFF01FFF00
3FFFF01FFF00
03FE0007FC00
01FE0001F000
01FC0001E000
01FC0001C000
03FC0001C000
03F80001C000
03F80001C000
07F800018000
07F800038000
07F000038000
07F000038000
0FF000030000
0FF000070000
0FE000070000
1FE000070000
1FE000060000
1FE0000E0000
1FC0000E0000
3FC0000E0000
3FC0000C0000
3F80001C0000
3F80001C0000
7F80001C0000
7F8000180000
7F8000380000
7F8000380000
7F8000700000
3F8000700000
3F8000E00000
3FC001C00000
1FE003C00000
0FF80F800000
07FFFE000000
01FFF8000000
001FC0000000
000E00000000
001E00000000
001E00000000
001F00000000
001F00000000
001F80000000
000FF8000000
0007FC000000
0003F8000000
ENDCHAR

STARTCHAR Uacute
ENCODING 218
SWIDTH 833 0
DWIDTH 42 0
BBX 42 50 5 -1
BITMAP
0000001E0000
0000003E0000
0000007F0000
000000FE0000
000001FC0000
000001F80000
000003E00000
000007000000
000004000000
000000000000
000000000000
000000000000
000000000000
3FFFF01FFF00
3FFFF01FFF00
03FF0003FC00
01FE0001F000
01FC0001E000
01FC0001E000
03FC0000C000
03FC0001C000
03F80001C000
07F80001C000
07F800018000
07F800038000
07F000038000
0FF000038000
0FF000030000
0FE000070000
0FE000070000
1FE000070000
1FE000060000
1FC0000E0000
3FC0000E0000
3FC0000E0000
3FC0000C0000
3F80001C0000
7F80001C0000
7F80001C0000
7F8000180000
7F8000380000
7F8000300000
3F8000700000
3FC000E00000
1FC001E00000
1FE003C00000
0FF80F800000
07FFFE000000
01FFFC000000
001FC0000000
ENDCHAR

STARTCHAR Ucircumflex
ENCODING 219
SWIDTH 833 0
DWIDTH 42 0
BBX 42 50 5 -1
BITMAP
000001F80000
000003FC0000
000007FC0000
00000FFC0000
00001F1C0000
00003C1C0000
0000700E0000
0000C0060000
000100020000
000000000000
000000000000
000000000000
000000000000
3FFFF01FFF00
3FFFF01FFF00
03FF0003FC00
01FE0001F000
01FC0001E000
01FC0001E000
03FC0000C000
03FC0001C000
03F80001C000
07F80001C000
07F800018000
07F800038000
07F000038000
0FF000038000
0FF000030000
0FE000070000
0FE000070000
1FE000070000
1FE000060000
1FC0000E0000
3FC0000E0000
3FC0000E0000
3FC0000C0000
3F80001C0000
7F80001C0000
7F80001C0000
7F8000180000
7F8000380000
7F8000300000
3F8000700000
3FC000E00000
1FC001E00000
1FE003C00000
0FF80F800000
07FFFE000000
01FFFC000000
001FC0000000
ENDCHAR

STARTCHAR Udieresis
ENCODING 220
SWIDTH 833 0
DWIDTH 42 0
BBX 41 49 6 -1
BITMAP
0000380C0000
00007C1F0000
00007E3F0000
0000FE3F0000
00007E3F0000
00007C1E0000
0000380C0000
000000000000
000000000000
000000000000
000000000000
000000000000
3FFFF01FFE00
3FFFF03FFE00
03FE0007F800
01FE0003E000
01FC0001C000
01FC0001C000
03FC0001C000
03F800018000
03F800038000
07F800038000
07F800038000
07F000030000
07F000070000
0FF000070000
0FF000070000
0FE000060000
1FE0000E0000
1FE0000E0000
1FC0000E0000
1FC0000C0000
3FC0001C0000
3FC0001C0000
3F80001C0000
3F8000180000
7F8000380000
7F8000380000
7F8000380000
7F8000300000
7F8000700000
3F8000E00000
3F8000E00000
1FC001C00000
1FE003800000
0FF80F000000
07FFFE000000
01FFF8000000
001FC0000000
ENDCHAR

STARTCHAR Utilde
ENCODING 221
SWIDTH 833 0
DWIDTH 42 0
BBX 42 49 5 -1
BITMAP
00000F808000
00003FF18000
00003FFF8000
00007FFF0000
000063FF0000
0000407C0000
000000000000
000000000000
000000000000
000000000000
000000000000
000000000000
3FFFF01FFF00
3FFFF01FFF00
03FF0003FC00
01FE0001F000
01FC0001E000
01FC0001E000
03FC0000C000
03FC0001C000
03F80001C000
07F80001C000
07F800018000
07F800038000
07F000038000
0FF000038000
0FF000030000
0FE000070000
0FE000070000
1FE000070000
1FE000060000
1FC0000E0000
3FC0000E0000
3FC0000E0000
3FC0000C0000
3F80001C0000
7F80001C0000
7F80001C0000
7F8000180000
7F8000380000
7F8000300000
3F8000700000
3FC000E00000
1FC001E00000
1FE003C00000
0FF80F800000
07FFFE000000
01FFFC000000
001FC0000000
ENDCHAR

STARTCHAR Umacron
ENCODING 222
SWIDTH 833 0
DWIDTH 42 0
BBX 42 47 5 -1
BITMAP
00007FFFE000
00007FFFC000
00007FFFC000
00007FFFC000
000000000000
000000000000
000000000000
000000000000
000000000000
000000000000
3FFFF01FFF00
3FFFF01FFF00
03FF0003FC00
01FE0001F000
01FC0001E000
01FC0001E000
03FC0000C000
03FC0001C000
03F80001C000
07F80001C000
07F800018000
07F800038000
07F000038000
0FF000038000
0FF000030000
0FE000070000
0FE000070000
1FE000070000
1FE000060000
1FC0000E0000
3FC0000E0000
3FC0000E0000
3FC0000C0000
3F80001C0000
7F80001C0000
7F80001C0000
7F8000180000
7F8000380000
7F8000300000
3F8000700000
3FC000E00000
1FC001E00000
1FE003C00000
0FF80F800000
07FFFE000000
01FFFC000000
001FC0000000
ENDCHAR

STARTCHAR germandbls
ENCODING 223
SWIDTH 574 0
DWIDTH 29 0
BBX 36 47 -5 -10
BITMAP
000003FC00
00000FFF00
00003F0F80
00007E07C0
00007C07C0
0000FC07E0
0001F807E0
0001F807E0
0003F007E0
0003F007E0
0007E00FC0
0007E00FC0
000FE01F80
000FE03F00
000FC07E00
001FC1FC00
001FC7E000
001F87E000
001F80F800
003F807C00
003F807E00
003F003E00
007F003F00
007F003F00
007E003F00
007E003F00
00FE003F00
00FE007F00
00FC007F00
00FC207F00
01FCF0FE00
01FCF8FE00
01F9F9FC00
01F9F1FC00
03F9E3F800
03F8E7F000
03F07FC000
07F03F0000
07F0000000
07E0000000
0FE0000000
0FE0000000
1FC0000000
1FC0000000
3FC0000000
3F80000000
3800000000
ENDCHAR

STARTCHAR amacron
ENCODING 224
SWIDTH 667 0
DWIDTH 33 0
BBX 31 34 2 -1
BITMAP
000FFFF8
000FFFF8
001FFFF0
001FFFF0
00000000
00000000
00000000
00000000
00000000
000F8020
007FC7E0
00FFE7E0
03FC7FE0
07F83FC0
07F03FC0
0FE03FC0
1FC03F80
1FC03F80
3F803F80
3F803F80
3F803F00
7F003F00
7F003F00
7F007F00
7F007E00
7F007E18
7F00FE38
7F00FC30
3F01FC70
3F83FCE0
3FCEFFC0
1FFEFF80
0FF87F00
03F03C00
ENDCHAR

STARTCHAR aacute
ENCODING 225
SWIDTH 667 0
DWIDTH 33 0
BBX 31 37 2 -1
BITMAP
00000780
00000FC0
00001FC0
00003FC0
00003F80
00007E00
0000F800
0000E000
00008000
00000000
00000000
00000000
001F8060
007FC7E0
00FFE7E0
03FC7FE0
07F83FC0
07F03FC0
0FE03FC0
1FC03F80
1FC03F80
3F803F80
3F803F80
3F803F00
7F003F00
7F003F00
7F007F00
7F007E00
7F007E18
7F00FE38
7F00FC30
3F01FC70
3F83FCE0
3FCEFFC0
1FFEFF80
0FF87F00
03F03C00
ENDCHAR

STARTCHAR acircumflex
ENCODING 226
SWIDTH 667 0
DWIDTH 33 0
BBX 31 37 2 -1
BITMAP
00003F00
00007F00
0000FF00
0001FF00
0003E780
00078380
000E0180
00180180
006000C0
00000000
00000000
00000000
001F8020
007FC7E0
00FFE7E0
03FC7FE0
07F83FC0
07F03FC0
0FE03FC0
1FC03F80
1FC03F80
3F803F80
3F803F80
3F803F00
7F003F00
7F003F00
7F007F00
7F007E00
7F007E18
7F00FE38
7F00FC30
3F01FC70
3F83FCE0
3FCEFFC0
1FFEFF80
0FF87F00
03F03C00
ENDCHAR

STARTCHAR atilde
ENCODING 227
SWIDTH 667 0
DWIDTH 33 0
BBX 31 36 2 -1
BITMAP
0003E010
0007FC20
000FFFE0
001FFFC0
0018FFC0
00101F80
00000000
00000000
00000000
00000000
00000000
001F8060
007FC7E0
00FFE7E0
03FC7FE0
07F83FC0
07F03FC0
0FE03FC0
1FC03F80
1FC03F80
3F803F80
3F803F80
3F803F00
7F003F00
7F003F00
7F007F00
7F007E00
7F007E18
7F00FE38
7F00FC30
3F01FC70
3F83FCE0
3FCEFFC0
1FFEFF80
0FF87F00
03F03C00
ENDCHAR

STARTCHAR adieresis
ENCODING 228
SWIDTH 667 0
DWIDTH 33 0
BBX 30 36 2 -1
BITMAP
00060380
000F87C0
001F87E0
001F8FE0
001F87E0
000F07C0
00060180
00000000
00000000
00000000
00000000
001F80E0
007FCFC0
01FFEFC0
03FC6FC0
07F03FC0
07E03F80
0FE03F80
1FC03F80
1FC03F80
3F803F00
3F803F00
3F803F00
7F003F00
7F007E00
7F007E00
7F007E00
7F00FC38
7F00FC30
7F01FC70
3F01FC60
3F03FCC0
3F8EFF80
1FFCFF80
0FF87E00
03E07C00
ENDCHAR

STARTCHAR aring
ENCODING 229
SWIDTH 667 0
DWIDTH 33 0
BBX 31 38 2 -1
BITMAP
00007C00
0001FE00
0001CF00
00038700
00030300
00030300
00038700
0001CF00
0001FE00
00007C00
00000000
00000000
00000000
001F8060
007FC7E0
01FFEFE0
03FC6FC0
07F03FC0
07E03FC0
0FE03FC0
1FC03F80
1FC03F80
3F803F80
3F803F00
3F803F00
7F003F00
7F003F00
7F007E00
7F007E00
7F00FE18
7F00FE38
7F01FC30
3F01FC60
3F83FCE0
3F8EFFC0
1FFCFF80
0FF87F00
03F03C00
ENDCHAR

STARTCHAR ae
ENCODING 230
SWIDTH 815 0
DWIDTH 41 0
BBX 41 25 0 -1
BITMAP
001F81C1F000
007FE7C7F800
00FFE7DFFC00
01FC77F8FE00
03F83FF07E00
07F03FE07E00
0FE01FC07E00
0FE01FC07E00
1FC01FC0FC00
1FC01F81FC00
3F801F81F800
3F803F87E000
3F803F1FC000
7F003FFE0000
7F003FF00000
7F007F000000
7F007F000000
7F00FF000000
7F00FF000800
3F01BF001800
3F83BF807000
1F871FC0E000
1FFE0FFFC000
07FC07FF0000
01F000F80000
ENDCHAR

STARTCHAR iogonek
ENCODING 231
SWIDTH 389 0
DWIDTH 19 0
BBX 18 47 2 -11
BITMAP
003C00
007E00
00FF00
00FF00
00FF00
00FF00
007E00
001800
000000
000000
000000
000000
00FC00
3FF800
3FF800
03F800
03F800
03F000
03F000
07F000
07E000
07E000
0FE000
0FE000
0FC000
0FC000
1FC000
1F8000
1F8300
1F8700
3F8E00
3F1E00
3F3C00
3FF800
3FF000
1FE000
0F8000
1C0000
1C0000
3C0000
3C0000
3E0000
3F0000
1FC000
1FF800
0FF000
01C000
ENDCHAR

STARTCHAR ccaron
ENCODING 232
SWIDTH 537 0
DWIDTH 27 0
BBX 30 37 1 -1
BITMAP
00080030
000C00E0
000E03C0
000F0F80
00073F00
0007FE00
0007F800
0007F000
0007E000
00000000
00000000
00000000
0007F000
003FFC00
007E1E00
01FC0F00
03F81F00
03F03F00
07E07F00
0FE07F00
0FC07E00
1FC03C00
1FC00000
1F800000
3F800000
3F800000
3F800000
3F800000
3F800000
3F800000
3F800C00
1FC01C00
1FC03800
0FF0F000
07FFE000
03FF8000
007E0000
ENDCHAR

STARTCHAR eacute
ENCODING 233
SWIDTH 519 0
DWIDTH 26 0
BBX 26 37 0 -1
BITMAP
00001C00
00003E00
00007F00
0000FF00
0000FE00
0001F800
0003E000
00038000
00060000
00000000
00000000
00000000
0007F800
001FFE00
007E7E00
00F83F00
01F03F00
03F03F00
07E03F00
0FE07F00
0FE07E00
1FC0FE00
1FC1FC00
3FC3F000
3FCFE000
3FFF0000
3FF00000
3F800000
3F800000
3F800000
3F800C00
1FC01C00
1FC03800
0FE0F000
07FFE000
03FF8000
007E0000
ENDCHAR

STARTCHAR eogonek
ENCODING 234
SWIDTH 519 0
DWIDTH 26 0
BBX 26 34 0 -10
BITMAP
0007F800
001FFE00
007E7E00
00F83F00
01F03F00
03F03F00
07E03F00
0FE07F00
0FE07E00
1FC0FE00
1FC1FC00
3FC3F000
3FCFE000
3FFF0000
3FF00000
3F800000
3F800000
3F800000
3F800C00
1FC01C00
1FC03800
0FE0F000
07FFE000
03FF8000
007E0000
00380000
00380000
00780000
00780000
007C0000
007E0000
003F8000
001FE000
000FC000
ENDCHAR

STARTCHAR edieresis
ENCODING 235
SWIDTH 519 0
DWIDTH 26 0
BBX 26 36 0 -1
BITMAP
00180E00
003E1F00
007E1F80
007E3F80
007E1F80
003E1F00
00180E00
00000000
00000000
00000000
00000000
0007F800
001FFE00
007E7E00
00F83F00
03F03F00
03F03F00
07E03F00
0FE07F00
0FC07E00
1FC0FE00
1FC1FC00
3FC3F000
3F8FC000
3FFF0000
3FF00000
3F800000
3F800000
3F800000
3F800C00
1F801C00
1FC03800
0FE0F000
07FFE000
03FF8000
007E0000
ENDCHAR

STARTCHAR edotaccent
ENCODING 236
SWIDTH 519 0
DWIDTH 26 0
BBX 27 36 0 -1
BITMAP
0000E000
0001F000
0003F800
0003F800
0003F800
0001F000
0000E000
00000000
00000000
00000000
00000000
0003FC00
001FFF00
007E3F00
00FC3F80
01F81F80
03F01F80
07F03F80
0FE03F80
0FE03F00
1FE07F00
1FC0FE00
3FC3F800
3FCFE000
3FFF8000
3FF80000
3F800000
3F800000
3F800000
3F800600
1FC00E00
1FC01C00
0FF07800
07FFF000
03FFC000
007E0000
ENDCHAR

STARTCHAR iacute
ENCODING 237
SWIDTH 389 0
DWIDTH 19 0
BBX 21 37 2 -1
BITMAP
0001E0
0003E0
0007F0
000FE0
001FC0
001F80
003C00
007000
004000
000000
000000
000000
00FC00
3FF800
3FF800
07F800
03F000
03F000
07F000
07F000
07E000
07E000
0FE000
0FC000
0FC000
0FC000
1FC000
1F8000
1F8300
3F8600
3F0E00
3F1C00
3F3800
3F7800
3FF000
3FE000
1F8000
ENDCHAR

STARTCHAR icircumflex
ENCODING 238
SWIDTH 389 0
DWIDTH 19 0
BBX 21 37 2 -1
BITMAP
001F80
003FC0
007FC0
00FFC0
01F1C0
03C1E0
0700E0
0C0060
100020
000000
000000
000000
00FC00
3FF800
3FF800
07F800
03F000
03F000
07F000
07F000
07E000
07E000
0FE000
0FC000
0FC000
0FC000
1FC000
1F8000
1F8300
3F8600
3F0E00
3F1C00
3F3800
3F7800
3FF000
3FE000
1F8000
ENDCHAR

STARTCHAR imacron
ENCODING 239
SWIDTH 389 0
DWIDTH 19 0
BBX 24 35 2 -1
BITMAP
07FFFE
07FFFC
07FFFC
07FFFC
000000
000000
000000
000000
000000
000000
00FC00
3FF800
3FF800
07F800
03F000
03F000
07F000
07F000
07E000
07E000
0FE000
0FC000
0FC000
0FC000
1FC000
1F8000
1F8300
3F8600
3F0E00
3F1C00
3F3800
3F7800
3FF000
3FE000
1F8000
ENDCHAR

STARTCHAR dcroat
ENCODING 240
SWIDTH 667 0
DWIDTH 33 0
BBX 37 37 0 -1
BITMAP
000003FF80
000003FF80
000007FF80
0000007F00
0000003F00
0000007F00
0000FFFFE0
0000FFFFE0
0000FFFFE0
000000FC00
000000FC00
000001FC00
000FC1FC00
003FF1F800
00FFF9F800
01FE1FF800
03FC0FF000
03F80FF000
07F007F000
0FF007F000
0FE007E000
1FE007E000
1FC00FE000
1FC00FC000
3FC00FC000
3FC00FC000
3F801FC000
3F801F8000
3F803F8300
3F803F8600
3F807F0E00
1F80FF0C00
1FC1FF1C00
1FE3BF7800
0FFF3FF000
07FE1FE000
01F80F8000
ENDCHAR

STARTCHAR ncommaaccent
ENCODING 241
SWIDTH 685 0
DWIDTH 34 0
BBX 33 35 1 -11
BITMAP
0000078000
1FFC1FE000
1FF87FE000
03F8FFF000
01F9C7F000
01FB83F000
03F703F000
03FE03F000
03FC07F000
07F807F000
07F807E000
07F00FE000
07F00FE000
0FE00FC000
0FE01FC000
0FC01FC000
0FC01F8600
1FC01F8600
1F803F8E00
1F803F0C00
3F803F1800
3F803F3800
3F003FF000
3F001FE000
7F000F8000
0000000000
0000000000
0018000000
007E000000
007E000000
003E000000
000E000000
000C000000
0018000000
0060000000
ENDCHAR

STARTCHAR omacron
ENCODING 242
SWIDTH 574 0
DWIDTH 29 0
BBX 30 34 0 -1
BITMAP
001FFFF0
003FFFF0
003FFFE0
003FFFE0
00000000
00000000
00000000
00000000
00000000
000FE000
007FFC00
00FC3E00
03F81F00
07F00F80
0FE00FC0
0FE00FC0
1FE00FC0
1FC00FE0
3FC00FE0
3F800FE0
3F800FE0
7F801FE0
7F801FC0
7F001FC0
7F003FC0
7F003F80
3F003F80
3F007F00
3F007F00
1F00FE00
0F81FC00
07C3F000
03FFE000
00FF0000
ENDCHAR

STARTCHAR kcommaaccent
ENCODING 243
SWIDTH 648 0
DWIDTH 32 0
BBX 30 47 1 -10
BITMAP
0001C000
01FFC000
03FF8000
003F8000
003F8000
003F8000
003F0000
003F0000
007F0000
007E0000
007E0000
007E0000
00FE0000
00FC0FE0
00FC3FF0
01FC7FF8
01F8E3F8
01F981F8
03FB01F8
03FE01F8
03FC01F0
03FC03F0
07F807C0
07F00F80
07F37E00
0FE7F000
0FE3F000
0FC07800
0FC07800
1FC07C10
1F80FC38
1F80FC30
3F80FC60
3F00FFE0
3F00FFC0
3F007F80
7F007E00
00000000
00000000
00000000
00780000
00FC0000
00FC0000
003C0000
00180000
00300000
00E00000
ENDCHAR

STARTCHAR ocircumflex
ENCODING 244
SWIDTH 574 0
DWIDTH 29 0
BBX 28 37 0 -1
BITMAP
00007E00
0000FE00
0001FE00
0003FE00
0007FF00
000F0F00
003C0700
00700300
00C00180
00000000
00000000
00000000
000FF000
007FFC00
00FC3E00
03F81F00
07F00F80
0FE00FC0
0FE00FC0
1FE00FC0
1FC00FE0
3FC00FE0
3F800FE0
3F800FE0
7F801FE0
7F801FC0
7F001FC0
7F003FC0
7F003F80
3F003F80
3F007F00
3F007F00
1F00FE00
0F81FC00
07C3F000
03FFE000
00FF0000
ENDCHAR

STARTCHAR otilde
ENCODING 245
SWIDTH 574 0
DWIDTH 29 0
BBX 28 35 0 -1
BITMAP
0007C020
001FF840
001FFFC0
003FFF80
0021FF80
00203E00
00000000
00000000
00000000
00000000
000FF000
007FFC00
00FC3E00
03F81F00
07F00F80
0FE00FC0
0FE00FC0
1FE00FC0
1FC00FE0
3FC00FE0
3F800FE0
3F800FE0
7F801FE0
7F801FC0
7F001FC0
7F003FC0
7F003F80
3F003F80
3F007F00
3F007F00
1F00FE00
0F81FC00
07C3F000
03FFE000
00FF0000
ENDCHAR

STARTCHAR odieresis
ENCODING 246
SWIDTH 574 0
DWIDTH 29 0
BBX 28 36 0 -1
BITMAP
000E0300
001F07C0
003F8FC0
003F8FC0
003F8FC0
001F07C0
000E0300
00000000
00000000
00000000
00000000
000FF000
007FFC00
00FE3E00
03F81F00
07F00F80
0FF00FC0
0FE00FC0
1FE00FC0
1FC00FE0
3FC00FE0
3FC00FE0
3F800FE0
7F800FE0
7F801FC0
7F801FC0
7F001FC0
7F003FC0
3F003F80
3F007F00
3F007F00
1F80FE00
0F80FC00
07C3F800
03FFE000
007F0000
ENDCHAR

STARTCHAR divide
ENCODING 247
SWIDTH 650 0
DWIDTH 32 0
BBX 30 26 4 4
BITMAP
00030000
00078000
000FC000
000FC000
00078000
00030000
00000000
00000000
00000000
00000000
00000000
7FFFFFF8
7FFFFFF8
7FFFFFF8
7FFFFFF8
00000000
00000000
00000000
00000000
00000000
00030000
00078000
000FC000
000FC000
00078000
00030000
ENDCHAR

STARTCHAR oslash
ENCODING 248
SWIDTH 574 0
DWIDTH 29 0
BBX 28 25 0 -1
BITMAP
000FF000
003FFDC0
00FC3F80
01F81F80
03F00F80
07F01FC0
0FE03FC0
1FE07FE0
1FC06FE0
1FC0CFE0
3FC18FE0
3F838FE0
3F870FE0
3F8E1FE0
3F9C1FC0
3FB81FC0
3F703FC0
3FE03F80
3FC07F80
1F807F00
0F80FE00
0F81FC00
1FC3F800
3BFFE000
00FF0000
ENDCHAR

STARTCHAR uogonek
ENCODING 249
SWIDTH 685 0
DWIDTH 34 0
BBX 32 33 2 -10
BITMAP
3FFC01F8
3FF803F8
07F803F0
03F803F0
03F007F0
07F007E0
07F007E0
07E00FE0
0FE00FC0
0FE00FC0
0FC01FC0
0FC01F80
1FC03F80
1F803F80
1F807F80
3F80FF0C
3F00FF0C
3F01FF18
3F037E38
3F867E30
3FFC7FE0
1FF87FC0
0FE03F80
00003C00
00007000
0000F000
0000F000
0000F800
0000F800
0000FE00
00007FC0
00003FE0
00000F80
ENDCHAR

STARTCHAR uacute
ENCODING 250
SWIDTH 685 0
DWIDTH 34 0
BBX 32 37 2 -1
BITMAP
000003C0
000007E0
00000FE0
00000FE0
00001FC0
00003F80
00003C00
00007000
00004000
00000000
00000000
00000000
00000000
3FFC01F8
3FF803F8
07F803F0
03F803F0
03F007F0
07F007E0
07F007E0
07E00FE0
07E00FC0
0FE00FC0
0FC01FC0
0FC01FC0
1FC03F80
1F803F80
1F807F80
3F807F0C
3F80FF0C
3F01FF1C
3F03FE18
3F077E30
3F9E7E70
3FFC7FE0
1FF03FC0
0FC03F00
ENDCHAR

STARTCHAR ucircumflex
ENCODING 251
SWIDTH 685 0
DWIDTH 34 0
BBX 32 37 2 -1
BITMAP
00001F80
00003F80
00007F80
0000FF80
0001FBC0
0003E1C0
000700C0
000C0040
00100060
00000000
00000000
00000000
00000000
3FFC01F8
3FF803F8
07F803F0
03F803F0
03F007F0
07F007E0
07F007E0
07E00FE0
07E00FC0
0FE00FC0
0FC01FC0
0FC01FC0
1FC03F80
1F803F80
1F807F80
3F807F0C
3F80FF0C
3F01FF1C
3F03FE18
3F077E30
3F9E7E70
3FFC7FE0
1FF03FC0
0FC03F00
ENDCHAR

STARTCHAR udieresis
ENCODING 252
SWIDTH 685 0
DWIDTH 34 0
BBX 32 36 2 -1
BITMAP
000380C0
0007C1F0
000FE3F0
000FE3F0
000FE3F0
0007C1E0
000380C0
00000000
00000000
00000000
00000000
00000000
3FFC01F8
3FF803F8
07F803F0
03F803F0
03F007F0
07F007E0
07F007E0
07E00FE0
07E00FC0
0FE00FC0
0FC01FC0
0FC01FC0
1FC03F80
1F803F80
1F807F80
3F807F0C
3F80FF0C
3F01FF1C
3F03FE18
3F077E30
3F9E7E70
3FFC7FE0
1FF03FC0
0FC03F00
ENDCHAR

STARTCHAR utilde
ENCODING 253
SWIDTH 685 0
DWIDTH 34 0
BBX 32 35 2 -1
BITMAP
0003E020
000FFC60
001FFFE0
001FFFC0
0010FF80
00201F00
00000000
00000000
00000000
00000000
00000000
3FFC01F8
3FF803F8
07F803F0
03F803F0
03F007F0
07F007E0
07F007E0
07E00FE0
07E00FC0
0FE00FC0
0FC01FC0
0FC01FC0
1FC03F80
1F803F80
1F807F80
3F807F0C
3F80FF0C
3F01FF1C
3F03FE18
3F077E30
3F9E7E70
3FFC7FE0
1FF03FC0
0FC03F00
ENDCHAR

STARTCHAR umacron
ENCODING 254
SWIDTH 685 0
DWIDTH 34 0
BBX 32 34 2 -1
BITMAP
0007FFFC
0007FFFC
000FFFF8
000FFFF8
00000000
00000000
00000000
00000000
00000000
00000000
3FFC01F8
3FF803F8
07F803F0
03F803F0
03F007F0
07F007E0
07F007E0
07E00FE0
07E00FC0
0FE00FC0
0FC01FC0
0FC01FC0
1FC03F80
1F803F80
1F807F80
3F807F0C
3F80FF0C
3F01FF1C
3F03FE18
3F077E30
3F9E7E70
3FFC7FE0
1FF03FC0
0FC03F00
ENDCHAR

STARTCHAR dotaccent
ENCODING 255
SWIDTH 333 0
DWIDTH 17 0
BBX 10 7 8 28
BITMAP
0C00
3F00
3F00
3F00
3F00
1F00
0C00
ENDCHAR
ENDFONT
